<svg version="1.0" xmlns="http://www.w3.org/2000/svg"
 width="1080.000000pt" height="1080.000000pt" viewBox="0 0 1080.000000 1080.000000"
 preserveAspectRatio="xMidYMid meet">

<g transform="translate(0.000000,1080.000000) scale(0.100000,-0.100000)"
stroke="none">
  <path fill="#8C969B" d="M5065 10788 c-161 -8 -525 -51 -562 -65 -17 -7 472 -483 3110 -3031
  1722 -1662 3132 -3020 3134 -3018 8 7 32 247 42 413 52 831 -105 1709 -441
  2473 -279 634 -649 1173 -1147 1671 -435 434 -890 755 -1465 1034 -820 399
  -1720 575 -2671 523z"/>
  
  <path fill="#418E44" d="M3020 10245 c-554 -275 -997 -592 -1421 -1014 -366 -366 -641 -725
  -891 -1161 -666 -1164 -871 -2552 -572 -3864 40 -177 111 -436 125 -456 8 -12
  20 -4 62 42 219 237 3293 3458 3299 3456 4 -2 165 -154 358 -338 193 -184 383
  -365 422 -401 l71 -65 -1808 -1900 c-994 -1044 -1822 -1913 -1838 -1931 l-30
  -32 38 -63 c60 -99 210 -312 308 -438 267 -341 610 -683 942 -941 844 -655
  1836 -1037 2920 -1124 838 -68 1774 93 2555 437 637 281 1166 644 1660 1138
  351 350 616 696 863 1125 127 220 322 629 315 660 -3 14 -7188 6955 -7200
  6955 -3 0 -83 -38 -178 -85z"/>
</g>
</svg>
