<svg width="76" height="71" viewBox="0 0 76 71" fill="none" xmlns="http://www.w3.org/2000/svg">
<g clip-path="url(#clip0_11_715)">
<path d="M75.2524 38.7608L55.0789 24.9792C54.5886 24.61 53.841 24.61 53.3507 24.9792L40.3593 33.9618V18.5805H43.4478C44.318 18.5805 45.0534 17.8422 45.0534 16.9809C45.0534 16.4887 44.8083 15.9965 44.3058 15.6273L24.1322 1.84571C23.642 1.47656 22.8944 1.47656 22.4041 1.84571L2.35317 15.7504C1.86293 16.1195 1.60555 16.8578 1.72811 17.4731C1.97323 18.0883 2.47573 18.5805 3.2111 18.5805H6.29963V61.6481H1.60555C0.735365 61.6481 0 62.3864 0 63.2478V69.4003C0 70.2617 0.747621 71 1.60555 71H69.8107C70.6809 71 71.4162 70.2617 71.4162 69.4003V41.5909H74.5048C75.1176 41.5909 75.7426 41.0987 75.9877 40.4835C75.9877 39.8682 75.7426 39.1299 75.2401 38.7608H75.2524ZM54.2087 28.0554L60.398 32.3622H54.2087C53.3385 32.3622 52.6031 33.1005 52.6031 33.9618C52.6031 34.8232 53.3507 35.5615 54.2087 35.5615H64.8592L69.3204 38.6377H39.1214L54.2209 28.0554H54.2087ZM12.6238 12.428H23.2743C24.1445 12.428 24.8799 11.6897 24.8799 10.8284C24.8799 9.96703 24.1322 9.22873 23.2743 9.22873H17.085L23.2743 4.92197L38.3738 15.3812H8.17481L12.636 12.428H12.6238ZM3.22335 64.7244H23.3969V67.8006H3.22335V64.7244ZM51.1201 67.8006V57.8336C51.1201 55.7417 52.8483 54.019 54.9563 54.019C57.0643 54.019 58.7925 55.7417 58.7925 57.8336V67.8006H51.1201ZM68.2051 44.6672H55.8265C54.9563 44.6672 54.2209 45.4055 54.2209 46.2668C54.2209 47.1282 54.9686 47.8665 55.8265 47.8665H68.2051V67.9237H62.0158V57.9566C62.0158 54.1421 58.9273 51.0658 55.0789 51.0658C51.2304 51.0658 48.1419 54.1421 48.1419 57.9566V67.9237H26.3628V63.1247C26.3628 62.2634 25.6152 61.5251 24.7573 61.5251H9.41268V47.7435H49.6372C50.5073 47.7435 51.2427 47.0052 51.2427 46.1438C51.2427 45.2825 50.4951 44.6672 49.6372 44.6672H9.41268V18.5805H37.2585V36.0537L33.2998 38.7608C32.8095 39.1299 32.5522 39.8682 32.687 40.4835C32.687 40.5655 32.7278 40.6476 32.8095 40.7296C33.0547 41.2218 33.5572 41.5909 34.17 41.5909H68.2051V44.6672Z" fill="#161616"/>
<path d="M34.1577 35.4384V23.1333C34.1577 22.272 33.4101 21.5337 32.5522 21.5337H13.9842C13.114 21.5337 12.3786 22.272 12.3786 23.1333V35.4384C12.3786 36.2997 13.1263 37.038 13.9842 37.038H32.5522C33.4223 37.038 34.1577 36.2997 34.1577 35.4384ZM31.0692 27.8093H27.9806V24.733H31.0692V27.8093ZM24.8799 27.8093H21.7913V24.733H24.8799V27.8093ZM15.602 24.733H18.6905V27.8093H15.602V24.733ZM15.602 30.8855H18.6905V33.9618H15.602V30.8855ZM21.7791 30.8855H24.8676V33.9618H21.7791V30.8855ZM31.0692 33.9618H27.9806V30.8855H31.0692V33.9618Z" fill="#161616"/>
<path d="M32.5522 50.8198H13.9842C13.114 50.8198 12.3786 51.5581 12.3786 52.4195V58.572C12.3786 59.4333 13.1263 60.1716 13.9842 60.1716H32.5522C33.4223 60.1716 34.1577 59.4333 34.1577 58.572V52.4195C34.1577 51.5581 33.4101 50.8198 32.5522 50.8198ZM31.0692 56.9723H15.602V53.8961H31.0692V56.9723Z" fill="#161616"/>
<path d="M51.9903 14.6429C51.9903 16.7348 53.7184 18.4575 55.8265 18.4575H59.0498C59.4175 20.1802 61.0353 21.5337 62.886 21.5337H70.6809C72.7889 21.5337 74.517 19.811 74.517 17.7192C74.517 15.6273 72.6541 13.9046 70.5583 13.9046H69.6881C69.3204 12.1819 67.7026 10.8284 65.852 10.8284H55.8265C53.7184 10.8284 51.9903 12.5511 51.9903 14.6429ZM55.8265 13.9046H65.852C66.2196 13.9046 66.5996 14.2738 66.5996 14.6429V14.889C66.477 15.3812 66.477 15.8734 66.8447 16.2426C67.0898 16.6117 67.5923 16.8578 68.0826 16.8578H70.5583C70.926 16.8578 71.3059 17.227 71.3059 17.5961C71.3059 17.9653 70.9382 18.3344 70.5583 18.3344H62.7634C62.3957 18.3344 62.0158 17.9653 62.0158 17.5961V17.35C62.1384 16.8578 62.1384 16.3656 61.7707 15.9965C61.403 15.6273 61.0231 15.3812 60.5328 15.3812H55.7039C55.3362 15.3812 54.9563 15.0121 54.9563 14.6429C55.0789 14.2738 55.324 13.9046 55.8265 13.9046Z" fill="#161616"/>
<path d="M48.8895 10.8284C51.8555 10.8284 54.3313 8.36742 54.3313 5.41421C54.3313 2.461 51.8555 0 48.8895 0C45.9236 0 43.4478 2.461 43.4478 5.41421C43.4478 8.36742 45.801 10.8284 48.8895 10.8284ZM48.8895 3.19931C50.1274 3.19931 51.2427 4.18371 51.2427 5.53726C51.2427 6.89081 50.1274 7.75217 48.8895 7.75217C47.6517 7.75217 46.5364 6.76776 46.5364 5.41421C46.5364 4.06066 47.5291 3.19931 48.8895 3.19931Z" fill="#161616"/>
</g>
<defs>
<clipPath id="clip0_11_715">
<rect width="76" height="71" fill="white"/>
</clipPath>
</defs>
</svg>
