<svg width="79" height="67" viewBox="0 0 79 67" fill="none" xmlns="http://www.w3.org/2000/svg">
<g clip-path="url(#clip0_10_231)">
<path d="M2.67085 53.4379C2.67085 54.1351 2.10419 54.7003 1.40531 54.7003C0.706431 54.7003 0.139771 54.1351 0.139771 53.4379C0.139771 50.672 1.27309 48.1623 3.09774 46.3385C4.92238 44.5184 7.44213 43.3879 10.215 43.3879H18.6091C19.308 43.3879 19.8747 43.9532 19.8747 44.6503C19.8747 45.3474 19.308 45.9127 18.6091 45.9127H10.215C8.14101 45.9127 6.25592 46.7605 4.88838 48.1247C3.52084 49.4888 2.67085 51.3692 2.67085 53.4379Z" fill="#161616" stroke="black" stroke-width="0.75" stroke-miterlimit="10"/>
<path d="M2.67085 10.1895V46.6024C4.28395 44.82 6.63747 43.6406 9.535 43.4258C9.56522 43.4258 9.59544 43.4258 9.62944 43.4258L17.7591 43.4559V3.05242C17.7591 2.94691 17.7138 2.8527 17.6458 2.78111C17.574 2.70951 17.4796 2.66806 17.3738 2.66806H10.215C8.14101 2.66806 6.25592 3.51592 4.88838 4.88004C3.52084 6.24415 2.67085 8.12453 2.67085 10.1933M17.3738 59.863C18.0727 59.863 18.6393 60.4282 18.6393 61.1254C18.6393 61.8225 18.0727 62.3877 17.3738 62.3877H10.215C7.44213 62.3877 4.92616 61.2573 3.09774 59.4372C1.27309 57.6171 0.139771 55.1037 0.139771 52.3377V10.1895C0.139771 7.42363 1.27309 4.91395 3.09774 3.0901C4.92616 1.27003 7.44213 0.143311 10.215 0.143311H17.3738C18.1785 0.143311 18.9076 0.471151 19.4364 0.99871C19.9653 1.52627 20.294 2.25355 20.294 3.05619V44.7258C20.294 45.423 19.7273 45.9882 19.0284 45.9882C18.9907 45.9882 18.9491 45.9882 18.9113 45.9844L9.72388 45.9505C7.50635 46.1163 5.73082 46.9943 4.54461 48.3095C3.3244 49.6623 2.70108 51.505 2.84463 53.5323C2.85218 53.6378 2.84463 53.7395 2.82952 53.8375C3.13174 55.3109 3.86462 56.6298 4.89594 57.6585C6.26348 59.0227 8.14857 59.8705 10.2225 59.8705H17.3814L17.3738 59.863Z" fill="#161616"/>
<path d="M2.67085 10.1895V46.6024C4.28395 44.82 6.63747 43.6406 9.535 43.4258C9.56522 43.4258 9.59544 43.4258 9.62944 43.4258L17.7591 43.4559V3.05242C17.7591 2.94691 17.7138 2.8527 17.6458 2.78111C17.574 2.70951 17.4796 2.66806 17.3738 2.66806H10.215C8.14101 2.66806 6.25592 3.51592 4.88838 4.88004C3.52084 6.24415 2.67085 8.12453 2.67085 10.1933M17.3738 59.863C18.0727 59.863 18.6393 60.4282 18.6393 61.1254C18.6393 61.8225 18.0727 62.3877 17.3738 62.3877H10.215C7.44213 62.3877 4.92616 61.2573 3.09774 59.4372C1.27309 57.6171 0.139771 55.1037 0.139771 52.3377V10.1895C0.139771 7.42363 1.27309 4.91395 3.09774 3.0901C4.92616 1.27003 7.44213 0.143311 10.215 0.143311H17.3738C18.1785 0.143311 18.9076 0.471151 19.4364 0.99871C19.9653 1.52627 20.294 2.25355 20.294 3.05619V44.7258C20.294 45.423 19.7273 45.9882 19.0284 45.9882C18.9907 45.9882 18.9491 45.9882 18.9113 45.9844L9.72388 45.9505C7.50635 46.1163 5.73082 46.9943 4.54461 48.3095C3.3244 49.6623 2.70108 51.5049 2.84463 53.5323C2.85218 53.6378 2.84463 53.7395 2.82952 53.8375C3.13174 55.3109 3.86462 56.6298 4.89594 57.6585C6.26348 59.0227 8.14857 59.8705 10.2225 59.8705H17.3814L17.3738 59.863Z" stroke="black" stroke-width="0.75" stroke-miterlimit="10"/>
<path d="M19.648 59.8628C20.3469 59.8628 20.9135 60.428 20.9135 61.1251C20.9135 61.8223 20.3469 62.3875 19.648 62.3875H15.7229C15.0241 62.3875 14.4574 61.8223 14.4574 61.1251C14.4574 60.428 15.0241 59.8628 15.7229 59.8628H19.648ZM19.4365 12.2769C18.7376 12.2769 18.1709 11.7117 18.1709 11.0146C18.1709 10.3174 18.7376 9.7522 19.4365 9.7522H66.167C66.8659 9.7522 67.4326 10.3174 67.4326 11.0146C67.4326 11.7117 66.8659 12.2769 66.167 12.2769H19.4365Z" fill="#161616" stroke="black" stroke-width="0.75" stroke-miterlimit="10"/>
<path d="M26.6897 53.3665C26.6897 54.0636 26.1231 54.6288 25.4242 54.6288C24.7253 54.6288 24.1586 54.0636 24.1586 53.3665V19.4557C24.1586 18.7586 24.7253 18.1934 25.4242 18.1934H48.8235C49.5224 18.1934 50.089 18.7586 50.089 19.4557V28.3903C50.089 29.0875 49.5224 29.6527 48.8235 29.6527C48.7857 29.6527 48.7441 29.6527 48.7064 29.6489L41.4947 29.615C40.7996 29.615 40.2367 29.046 40.2404 28.3526C40.2404 27.6593 40.8109 27.0978 41.506 27.1016L47.5617 27.1317V20.7219H26.6935V53.3702L26.6897 53.3665Z" fill="#161616" stroke="black" stroke-width="0.75" stroke-miterlimit="10"/>
<path d="M25.8359 29.37C25.1371 29.37 24.5704 28.8047 24.5704 28.1076C24.5704 27.4105 25.1371 26.8452 25.8359 26.8452H36.5723C37.2712 26.8452 37.8378 27.4105 37.8378 28.1076V34.4232C37.8378 35.1204 37.2712 35.6856 36.5723 35.6856C35.8734 35.6856 35.3067 35.1204 35.3067 34.4232V29.37H25.8359Z" fill="#161616" stroke="black" stroke-width="0.75" stroke-miterlimit="10"/>
<path d="M25.6999 42.412C25.001 42.412 24.4344 41.8467 24.4344 41.1496C24.4344 40.4524 25.001 39.8872 25.6999 39.8872H36.712C37.4109 39.8872 37.9776 40.4524 37.9776 41.1496C37.9776 41.8467 37.4109 42.412 36.712 42.412H25.6999Z" fill="#161616" stroke="black" stroke-width="0.75" stroke-miterlimit="10"/>
<path d="M6.54303 8.88566C6.54303 8.18853 7.10969 7.62329 7.80857 7.62329C8.50745 7.62329 9.07411 8.18853 9.07411 8.88566V40.4638C9.07411 41.161 8.50745 41.7262 7.80857 41.7262C7.10969 41.7262 6.54303 41.161 6.54303 40.4638V8.88566Z" fill="#161616" stroke="black" stroke-width="0.75" stroke-miterlimit="10"/>
<path d="M63.4055 41.1535L53.7874 51.4484H63.4055V41.1535ZM50.0172 51.7913L63.7455 37.095C64.2215 36.5863 65.0186 36.5562 65.5286 37.031C65.7968 37.2797 65.9291 37.6151 65.9291 37.9542V52.7146C65.9291 53.4117 65.3624 53.9769 64.6635 53.9769H50.8748C50.1759 53.9769 49.6092 53.4117 49.6092 52.7146C49.6092 52.3528 49.7641 52.025 50.0097 51.7951L50.0172 51.7913ZM75.3356 66.8607H26.3762C25.4166 66.8607 24.5931 66.4989 23.9849 65.9299C23.626 65.5983 23.3426 65.1913 23.15 64.7504C22.9535 64.302 22.8515 63.8197 22.8515 63.3373C22.8515 62.5083 23.1462 61.6605 23.8035 60.9558L72.7592 8.5428C73.4543 7.80044 74.3685 7.4613 75.2827 7.4613C75.7285 7.45753 76.1818 7.5442 76.6125 7.71001C77.0394 7.87581 77.436 8.11698 77.7722 8.42975C78.4296 9.04021 78.8602 9.89561 78.8602 10.9357V63.3449C78.8602 64.3133 78.4636 65.1913 77.8289 65.8282C77.1905 66.465 76.3103 66.8569 75.3394 66.8569L75.3356 66.8607ZM26.3762 64.3359H75.3356C75.6076 64.3359 75.8569 64.2267 76.0345 64.0458C76.2158 63.8649 76.3254 63.62 76.3254 63.3486V10.9357C76.3254 10.653 76.2158 10.4269 76.0496 10.2724C75.9476 10.1782 75.8305 10.1066 75.702 10.0539C75.5736 10.0049 75.4301 9.97851 75.2827 9.97851C75.0372 9.97474 74.7916 10.0614 74.6103 10.2574L25.6508 62.6704C25.4657 62.8701 25.3826 63.1075 25.3826 63.3336C25.3826 63.4805 25.4128 63.62 25.4657 63.7405C25.5224 63.8687 25.6055 63.9855 25.7075 64.0835C25.8737 64.238 26.1042 64.3359 26.3799 64.3359H26.3762Z" fill="#161616" stroke="black" stroke-width="0.75" stroke-miterlimit="10"/>
<path d="M69.4612 60.805C68.7623 60.805 68.1957 60.2398 68.1957 59.5426C68.1957 58.8455 68.7623 58.2803 69.4612 58.2803H73.1861C73.8849 58.2803 74.4516 58.8455 74.4516 59.5426C74.4516 60.2398 73.8849 60.805 73.1861 60.805H69.4612Z" fill="#161616" stroke="black" stroke-width="0.75" stroke-miterlimit="10"/>
<path d="M71.1687 54.5118C70.4699 54.5118 69.9032 53.9466 69.9032 53.2494C69.9032 52.5523 70.4699 51.9871 71.1687 51.9871H73.1898C73.8887 51.9871 74.4554 52.5523 74.4554 53.2494C74.4554 53.9466 73.8887 54.5118 73.1898 54.5118H71.1687Z" fill="#161616" stroke="black" stroke-width="0.75" stroke-miterlimit="10"/>
<path d="M71.1687 48.2188C70.4699 48.2188 69.9032 47.6536 69.9032 46.9565C69.9032 46.2593 70.4699 45.6941 71.1687 45.6941H73.1898C73.8887 45.6941 74.4554 46.2593 74.4554 46.9565C74.4554 47.6536 73.8887 48.2188 73.1898 48.2188H71.1687Z" fill="#161616" stroke="black" stroke-width="0.75" stroke-miterlimit="10"/>
<path d="M69.4612 41.9295C68.7623 41.9295 68.1957 41.3643 68.1957 40.6672C68.1957 39.97 68.7623 39.4048 69.4612 39.4048H73.1861C73.8849 39.4048 74.4516 39.97 74.4516 40.6672C74.4516 41.3643 73.8849 41.9295 73.1861 41.9295H69.4612Z" fill="#161616" stroke="black" stroke-width="0.75" stroke-miterlimit="10"/>
<path d="M71.1687 35.6366C70.4699 35.6366 69.9032 35.0713 69.9032 34.3742C69.9032 33.6771 70.4699 33.1118 71.1687 33.1118H73.1898C73.8887 33.1118 74.4554 33.6771 74.4554 34.3742C74.4554 35.0713 73.8887 35.6366 73.1898 35.6366H71.1687Z" fill="#161616" stroke="black" stroke-width="0.75" stroke-miterlimit="10"/>
<path d="M71.1687 29.3473C70.4699 29.3473 69.9032 28.782 69.9032 28.0849C69.9032 27.3878 70.4699 26.8225 71.1687 26.8225H73.1898C73.8887 26.8225 74.4554 27.3878 74.4554 28.0849C74.4554 28.782 73.8887 29.3473 73.1898 29.3473H71.1687Z" fill="#161616" stroke="black" stroke-width="0.75" stroke-miterlimit="10"/>
<path d="M69.4612 23.0543C68.7623 23.0543 68.1957 22.489 68.1957 21.7919C68.1957 21.0948 68.7623 20.5295 69.4612 20.5295H73.1861C73.8849 20.5295 74.4516 21.0948 74.4516 21.7919C74.4516 22.489 73.8849 23.0543 73.1861 23.0543H69.4612Z" fill="#161616" stroke="black" stroke-width="0.75" stroke-miterlimit="10"/>
</g>
<defs>
<clipPath id="clip0_10_231">
<rect width="79" height="67" fill="white"/>
</clipPath>
</defs>
</svg>
