<svg width="44" height="62" viewBox="0 0 44 62" fill="none" xmlns="http://www.w3.org/2000/svg">
<mask id="path-1-outside-1_10_312" maskUnits="userSpaceOnUse" x="-0.414429" y="-0.0681152" width="44" height="62" fill="black">
<rect fill="white" x="-0.414429" y="-0.0681152" width="44" height="62"/>
<path d="M15.64 50.5579C15.5346 50.6632 15.482 50.7686 15.482 50.8739C15.5346 50.9792 15.64 51.0319 15.798 51.0319H39.103C39.3663 51.0319 39.577 51.1372 39.735 51.3479C39.9456 51.5059 40.051 51.7166 40.051 51.9799V57.9839C40.051 58.2472 39.9456 58.4842 39.735 58.6949C39.577 58.8529 39.3663 58.9319 39.103 58.9319H6.39697C6.13364 58.9319 5.89664 58.8529 5.68597 58.6949C5.52797 58.4842 5.44897 58.2472 5.44897 57.9839V51.7429C5.44897 51.3216 5.6333 50.9529 6.00197 50.6369C8.05597 48.9516 9.08297 46.2129 9.08297 42.4209V36.0219C9.08297 35.7585 8.9513 35.6269 8.68797 35.6269H3.94797C3.68464 35.6269 3.44764 35.5479 3.23697 35.3899C3.07897 35.1792 2.99997 34.9422 2.99997 34.6789V29.1489C2.99997 28.8855 3.07897 28.6749 3.23697 28.5169C3.44764 28.3062 3.68464 28.2009 3.94797 28.2009H8.68797C8.9513 28.2009 9.08297 28.0692 9.08297 27.8059V19.5899C9.08297 14.3759 10.4786 10.3206 13.27 7.42388C16.114 4.47455 19.9586 2.99988 24.804 2.99988C28.596 2.99988 31.7296 4.05322 34.205 6.15988C36.733 8.21388 38.5236 11.1369 39.577 14.9289L39.656 15.2449C39.656 15.6662 39.3663 15.9295 38.787 16.0349L31.914 17.0619H31.677C31.2556 17.0619 30.966 16.8249 30.808 16.3509C30.2286 14.4549 29.4386 13.0855 28.438 12.2429C27.49 11.3475 26.2786 10.8999 24.804 10.8999C22.6973 10.8999 21.0646 11.6109 19.906 13.0329C18.8 14.4022 18.247 16.4826 18.247 19.2739V27.8059C18.247 28.0692 18.3786 28.2009 18.642 28.2009H31.203C31.4663 28.2009 31.677 28.3062 31.835 28.5169C32.0456 28.6749 32.151 28.8855 32.151 29.1489V34.6789C32.151 34.9422 32.0456 35.1792 31.835 35.3899C31.677 35.5479 31.4663 35.6269 31.203 35.6269H18.642C18.3786 35.6269 18.247 35.7585 18.247 36.0219V42.3419C18.247 45.8179 17.378 48.5566 15.64 50.5579Z"/>
</mask>
<path d="M15.64 50.5579L17.7613 52.6792L17.8359 52.6046L17.9051 52.5249L15.64 50.5579ZM15.482 50.8739H12.482V51.5821L12.7987 52.2155L15.482 50.8739ZM39.735 51.3479L37.335 53.1479L37.5921 53.4907L37.935 53.7479L39.735 51.3479ZM39.735 58.6949L41.8563 60.8162L41.8563 60.8162L39.735 58.6949ZM5.68597 58.6949L3.28597 60.4949L3.54311 60.8377L3.88597 61.0949L5.68597 58.6949ZM6.00197 50.6369L4.09902 48.3177L4.07409 48.3381L4.0496 48.3591L6.00197 50.6369ZM3.23697 35.3899L0.836967 37.1899L1.09411 37.5327L1.43697 37.7899L3.23697 35.3899ZM3.23697 28.5169L5.35829 30.6382L5.35829 30.6382L3.23697 28.5169ZM13.27 7.42389L11.1104 5.34148L11.1097 5.34221L13.27 7.42389ZM34.205 6.15988L32.2606 8.4445L32.2867 8.46666L32.3132 8.48822L34.205 6.15988ZM39.577 14.9289L42.4874 14.2013L42.478 14.1635L42.4675 14.1259L39.577 14.9289ZM39.656 15.2449H42.656V14.8756L42.5664 14.5173L39.656 15.2449ZM38.787 16.0349L39.2303 19.0019L39.2771 18.995L39.3236 18.9865L38.787 16.0349ZM31.914 17.0619V20.0619H32.1369L32.3573 20.0289L31.914 17.0619ZM30.808 16.3509L27.9389 17.2275L27.95 17.2637L27.9619 17.2996L30.808 16.3509ZM28.438 12.2429L26.3781 14.4239L26.4402 14.4826L26.5056 14.5376L28.438 12.2429ZM19.906 13.0329L17.5802 11.1378L17.5721 11.1479L19.906 13.0329ZM31.835 28.5169L29.435 30.3169L29.6921 30.6597L30.035 30.9169L31.835 28.5169ZM31.835 35.3899L29.7137 33.2686L31.835 35.3899ZM15.64 50.5579L13.5186 48.4366C13.0863 48.8689 12.482 49.6923 12.482 50.8739H15.482H18.482C18.482 51.8448 17.983 52.4575 17.7613 52.6792L15.64 50.5579ZM15.482 50.8739L12.7987 52.2155C13.5346 53.6874 14.9567 54.0319 15.798 54.0319V51.0319V48.0319C16.0329 48.0319 16.4609 48.0685 16.9421 48.3091C17.47 48.5731 17.9013 49.0043 18.1653 49.5323L15.482 50.8739ZM15.798 51.0319V54.0319H39.103V51.0319V48.0319H15.798V51.0319ZM39.103 51.0319V54.0319C38.8245 54.0319 38.4751 53.9733 38.1168 53.7942C37.7586 53.615 37.5021 53.3707 37.335 53.1479L39.735 51.3479L42.135 49.5479C41.4104 48.5818 40.3106 48.0319 39.103 48.0319V51.0319ZM39.735 51.3479L37.935 53.7479C37.7122 53.5808 37.4678 53.3243 37.2887 52.966C37.1096 52.6078 37.051 52.2584 37.051 51.9799H40.051H43.051C43.051 50.7723 42.5011 49.6724 41.535 48.9479L39.735 51.3479ZM40.051 51.9799H37.051V57.9839H40.051H43.051V51.9799H40.051ZM40.051 57.9839H37.051C37.051 57.7024 37.1101 57.4118 37.2305 57.1407C37.3479 56.8766 37.4969 56.6903 37.6137 56.5736L39.735 58.6949L41.8563 60.8162C42.549 60.1235 43.051 59.15 43.051 57.9839H40.051ZM39.735 58.6949L37.6137 56.5736C37.8396 56.3476 38.1123 56.1734 38.4051 56.0636C38.6887 55.9573 38.935 55.9319 39.103 55.9319V58.9319V61.9319C40.0091 61.9319 41.0361 61.6364 41.8563 60.8162L39.735 58.6949ZM39.103 58.9319V55.9319H6.39697V58.9319V61.9319H39.103V58.9319ZM6.39697 58.9319V55.9319C6.5702 55.9319 6.76679 55.9587 6.9704 56.0266C7.17402 56.0945 7.34738 56.1909 7.48597 56.2949L5.68597 58.6949L3.88597 61.0949C4.61593 61.6424 5.48453 61.9319 6.39697 61.9319V58.9319ZM5.68597 58.6949L8.08597 56.8949C8.18991 57.0335 8.2864 57.2068 8.35427 57.4105C8.42214 57.6141 8.44897 57.8106 8.44897 57.9839H5.44897H2.44897C2.44897 58.8963 2.7385 59.7649 3.28597 60.4949L5.68597 58.6949ZM5.44897 57.9839H8.44897V51.7429H5.44897H2.44897V57.9839H5.44897ZM5.44897 51.7429H8.44897C8.44897 51.9872 8.39136 52.2503 8.2705 52.492C8.15496 52.7231 8.02037 52.8581 7.95434 52.9147L6.00197 50.6369L4.0496 48.3591C3.12868 49.1485 2.44897 50.3075 2.44897 51.7429H5.44897ZM6.00197 50.6369L7.90492 52.9561C10.9123 50.4885 12.083 46.7118 12.083 42.4209H9.08297H6.08297C6.08297 45.7139 5.19965 47.4146 4.09902 48.3177L6.00197 50.6369ZM9.08297 42.4209H12.083V36.0219H9.08297H6.08297V42.4209H9.08297ZM9.08297 36.0219H12.083C12.083 35.4278 11.9324 34.4312 11.1055 33.6043C10.2787 32.7774 9.28207 32.6269 8.68797 32.6269V35.6269V38.6269C8.3572 38.6269 7.55811 38.5422 6.8629 37.847C6.16769 37.1517 6.08297 36.3527 6.08297 36.0219H9.08297ZM8.68797 35.6269V32.6269H3.94797V35.6269V38.6269H8.68797V35.6269ZM3.94797 35.6269V32.6269C4.1212 32.6269 4.31779 32.6537 4.5214 32.7216C4.72501 32.7895 4.89838 32.8859 5.03697 32.9899L3.23697 35.3899L1.43697 37.7899C2.16693 38.3374 3.03553 38.6269 3.94797 38.6269V35.6269ZM3.23697 35.3899L5.63697 33.5899C5.74091 33.7285 5.8374 33.9018 5.90527 34.1055C5.97314 34.3091 5.99997 34.5056 5.99997 34.6789H2.99997H-3.05176e-05C-3.05176e-05 35.5913 0.289503 36.4599 0.836967 37.1899L3.23697 35.3899ZM2.99997 34.6789H5.99997V29.1489H2.99997H-3.05176e-05V34.6789H2.99997ZM2.99997 29.1489H5.99997C5.99997 29.3168 5.97454 29.5632 5.86821 29.8468C5.75841 30.1395 5.58427 30.4122 5.35829 30.6382L3.23697 28.5169L1.11565 26.3956C0.295441 27.2158 -3.05176e-05 28.2428 -3.05176e-05 29.1489H2.99997ZM3.23697 28.5169L5.35829 30.6382C5.24151 30.755 5.05523 30.9039 4.79114 31.0213C4.52004 31.1418 4.22943 31.2009 3.94797 31.2009V28.2009V25.2009C2.78189 25.2009 1.80838 25.7028 1.11565 26.3956L3.23697 28.5169ZM3.94797 28.2009V31.2009H8.68797V28.2009V25.2009H3.94797V28.2009ZM8.68797 28.2009V31.2009C9.28207 31.2009 10.2787 31.0503 11.1055 30.2235C11.9324 29.3966 12.083 28.4 12.083 27.8059H9.08297H6.08297C6.08297 27.4751 6.16769 26.676 6.8629 25.9808C7.55811 25.2856 8.3572 25.2009 8.68797 25.2009V28.2009ZM9.08297 27.8059H12.083V19.5899H9.08297H6.08297V27.8059H9.08297ZM9.08297 19.5899H12.083C12.083 14.9138 13.3231 11.6922 15.4302 9.50556L13.27 7.42389L11.1097 5.34221C7.63417 8.94893 6.08297 13.838 6.08297 19.5899H9.08297ZM13.27 7.42389L15.4295 9.50629C17.6054 7.24981 20.6123 5.99989 24.804 5.99989V2.99989V-0.000114441C19.3049 -0.000114441 14.6225 1.69929 11.1104 5.34148L13.27 7.42389ZM24.804 2.99989V5.99989C28.0086 5.99989 30.4162 6.87475 32.2606 8.4445L34.205 6.15988L36.1493 3.87526C33.0431 1.23169 29.1833 -0.000114441 24.804 -0.000114441V2.99989ZM34.205 6.15988L32.3132 8.48822C34.2647 10.0738 35.7643 12.4122 36.6864 15.7318L39.577 14.9289L42.4675 14.1259C41.283 9.86154 39.2012 6.35393 36.0967 3.83154L34.205 6.15988ZM39.577 14.9289L36.6665 15.6565L36.7455 15.9725L39.656 15.2449L42.5664 14.5173L42.4874 14.2013L39.577 14.9289ZM39.656 15.2449H36.656C36.656 15.0021 36.6989 14.6928 36.8388 14.3623C36.9808 14.0266 37.1891 13.7491 37.4207 13.5386C37.8509 13.1475 38.2468 13.0839 38.2503 13.0833L38.787 16.0349L39.3236 18.9865C39.9064 18.8805 40.7369 18.6326 41.4567 17.9782C42.2786 17.231 42.656 16.2284 42.656 15.2449H39.656ZM38.787 16.0349L38.3436 13.0678L31.4706 14.0948L31.914 17.0619L32.3573 20.0289L39.2303 19.0019L38.787 16.0349ZM31.914 17.0619V14.0619H31.677V17.0619V20.0619H31.914V17.0619ZM31.677 17.0619V14.0619C32.0665 14.0619 32.5849 14.1871 33.0434 14.5623C33.4616 14.9044 33.6122 15.2768 33.654 15.4022L30.808 16.3509L27.9619 17.2996C28.1617 17.8989 28.5362 18.6269 29.244 19.206C29.9922 19.8181 30.8661 20.0619 31.677 20.0619V17.0619ZM30.808 16.3509L33.677 15.4742C33.0099 13.2908 31.9864 11.309 30.3704 9.94815L28.438 12.2429L26.5056 14.5376C26.8909 14.8621 27.4474 15.619 27.9389 17.2275L30.808 16.3509ZM28.438 12.2429L30.4978 10.0618C28.9189 8.57061 26.9363 7.89988 24.804 7.89988V10.8999V13.8999C25.621 13.8999 26.0611 14.1245 26.3781 14.4239L28.438 12.2429ZM24.804 10.8999V7.89988C21.9457 7.89988 19.3973 8.90788 17.5803 11.1379L19.906 13.0329L22.2317 14.9279C22.732 14.3139 23.4489 13.8999 24.804 13.8999V10.8999ZM19.906 13.0329L17.5721 11.1479C15.8464 13.2845 15.247 16.1734 15.247 19.2739H18.247H21.247C21.247 16.7917 21.7535 15.5199 22.2398 14.9179L19.906 13.0329ZM18.247 19.2739H15.247V27.8059H18.247H21.247V19.2739H18.247ZM18.247 27.8059H15.247C15.247 28.4 15.3975 29.3966 16.2244 30.2235C17.0513 31.0503 18.0479 31.2009 18.642 31.2009V28.2009V25.2009C18.9727 25.2009 19.7718 25.2856 20.467 25.9808C21.1622 26.676 21.247 27.4751 21.247 27.8059H18.247ZM18.642 28.2009V31.2009H31.203V28.2009V25.2009H18.642V28.2009ZM31.203 28.2009V31.2009C30.9245 31.2009 30.5751 31.1423 30.2168 30.9632C29.8586 30.784 29.6021 30.5397 29.435 30.3169L31.835 28.5169L34.235 26.7169C33.5104 25.7508 32.4106 25.2009 31.203 25.2009V28.2009ZM31.835 28.5169L30.035 30.9169C29.8122 30.7498 29.5678 30.4933 29.3887 30.135C29.2096 29.7768 29.151 29.4274 29.151 29.1489H32.151H35.151C35.151 27.9413 34.6011 26.8414 33.635 26.1169L31.835 28.5169ZM32.151 29.1489H29.151V34.6789H32.151H35.151V29.1489H32.151ZM32.151 34.6789H29.151C29.151 34.3974 29.2101 34.1068 29.3305 33.8357C29.4479 33.5716 29.5969 33.3853 29.7137 33.2686L31.835 35.3899L33.9563 37.5112C34.649 36.8185 35.151 35.845 35.151 34.6789H32.151ZM31.835 35.3899L29.7137 33.2686C29.9396 33.0426 30.2123 32.8684 30.5051 32.7586C30.7887 32.6523 31.035 32.6269 31.203 32.6269V35.6269V38.6269C32.1091 38.6269 33.1361 38.3314 33.9563 37.5112L31.835 35.3899ZM31.203 35.6269V32.6269H18.642V35.6269V38.6269H31.203V35.6269ZM18.642 35.6269V32.6269C18.0479 32.6269 17.0513 32.7774 16.2244 33.6043C15.3975 34.4312 15.247 35.4278 15.247 36.0219H18.247H21.247C21.247 36.3527 21.1622 37.1518 20.467 37.847C19.7718 38.5422 18.9727 38.6269 18.642 38.6269V35.6269ZM18.247 36.0219H15.247V42.3419H18.247H21.247V36.0219H18.247ZM18.247 42.3419H15.247C15.247 45.3242 14.5077 47.2864 13.3749 48.5908L15.64 50.5579L17.9051 52.5249C20.2483 49.8267 21.247 46.3116 21.247 42.3419H18.247Z" fill="black" mask="url(#path-1-outside-1_10_312)"/>
</svg>
