<svg width="156" height="35" viewBox="0 0 156 35" fill="none" xmlns="http://www.w3.org/2000/svg">
<g clip-path="url(#clip0_10_638)">
<path d="M37.8806 18.8007V0.314331H52.0623V4.61545H43.4657V7.26389H51.4101V11.5631H43.4657V14.4996H52.0623V18.7988H37.8806V18.8007Z" fill="#448E43"/>
<path d="M60.8495 18.8007L53.9602 0.314331H59.9794L64.0207 12.6643H62.6911L67.3028 0.314331H71.4512L75.5451 12.6643H74.27L78.7182 0.314331H84.3578L77.4431 18.8007H72.8061L68.9011 7.99799H69.524L65.5099 18.8007H60.8456H60.8495Z" fill="#448E43"/>
<path d="M86.9626 18.8007V0.314331H92.8202V18.8007H86.9626Z" fill="#448E43"/>
<path d="M96.7778 18.8007V0.314331H106.648C108.908 0.314331 110.607 0.852677 111.746 1.92749C112.885 3.00229 113.455 4.44981 113.455 6.26625C113.455 8.0827 112.887 9.5095 111.746 10.5918C110.607 11.6761 108.908 12.2182 106.648 12.2182H102.633V18.7988H96.7759L96.7778 18.8007ZM102.635 7.91893H105.863C106.55 7.91893 107.056 7.774 107.381 7.486C107.707 7.198 107.87 6.79142 107.87 6.26625C107.87 5.74108 107.707 5.3345 107.381 5.0465C107.056 4.75851 106.55 4.61357 105.863 4.61357H102.635V7.91705V7.91893Z" fill="#8B959A"/>
<path d="M116.41 18.8007V0.314331H125.82C128.081 0.314331 129.825 0.8395 131.053 1.88796C132.282 2.93641 132.897 4.38769 132.897 6.2399C132.897 7.46341 132.62 8.51752 132.069 9.40033C131.518 10.2831 130.709 10.9645 129.642 11.4464C128.575 11.9264 127.282 12.1673 125.764 12.1673L125.955 11.4069H127.555C128.351 11.4069 129.064 11.629 129.696 12.0751C130.329 12.5212 130.853 13.1029 131.269 13.8182L134.224 18.8007H127.798L124.518 12.9805C124.372 12.7189 124.139 12.5306 123.813 12.4158C123.488 12.3029 123.153 12.2445 122.811 12.2445H122.268V18.7988H116.41V18.8007ZM122.268 8.28599H124.763C125.595 8.28599 126.227 8.13352 126.661 7.8267C127.096 7.52176 127.312 7.05306 127.312 6.42437C127.312 5.79567 127.094 5.35897 126.661 5.06156C126.227 4.76415 125.595 4.61545 124.763 4.61545H122.268V8.28599Z" fill="#8B959A"/>
<path d="M136.152 9.54528C136.152 7.64037 136.555 5.97074 137.359 4.53641C138.163 3.10396 139.305 1.98962 140.789 1.1934C142.27 0.397171 144.024 0 146.049 0C148.073 0 149.854 0.397171 151.336 1.1934C152.817 1.98962 153.966 3.10396 154.779 4.53641C155.593 5.97074 156 7.63848 156 9.54528C156 11.4521 155.593 13.1198 154.779 14.5542C153.966 15.9885 152.817 17.1066 151.336 17.9103C149.852 18.7141 148.091 19.1169 146.049 19.1169C144.007 19.1169 142.27 18.7141 140.789 17.9103C139.305 17.1066 138.163 15.9828 137.359 14.541C136.555 13.0991 136.152 11.4333 136.152 9.54528ZM142.28 9.54528C142.28 11.0831 142.582 12.2822 143.189 13.1368C143.794 13.9932 144.748 14.4224 146.051 14.4224C147.353 14.4224 148.315 13.9895 148.937 13.1236C149.56 12.2577 149.874 11.0662 149.874 9.54528C149.874 8.02436 149.562 6.83661 148.937 5.98015C148.315 5.12369 147.351 4.69452 146.051 4.69452C144.75 4.69452 143.794 5.11805 143.189 5.96698C142.583 6.81402 142.28 8.00742 142.28 9.54528Z" fill="#8B959A"/>
<path d="M38.0715 31.8433V21.8651H42.1362C43.2127 21.8651 44.044 22.091 44.6299 22.5446C45.2159 22.9983 45.5098 23.6401 45.5098 24.4703C45.5098 25.0933 45.321 25.6128 44.9414 26.0269C44.5618 26.4429 44.0362 26.7159 43.3626 26.8476V26.65C44.1121 26.7347 44.7 26.9869 45.1283 27.4067C45.5566 27.8264 45.7687 28.3893 45.7687 29.097C45.7687 29.9836 45.469 30.6631 44.8674 31.1356C44.2678 31.608 43.4191 31.8433 42.3231 31.8433H38.0715ZM39.2395 26.3243H41.963C42.7514 26.3243 43.3412 26.1738 43.7364 25.8707C44.1296 25.5695 44.3282 25.1347 44.3282 24.5681C44.3282 24.0016 44.1316 23.5423 43.7364 23.2449C43.3432 22.9474 42.7514 22.7987 41.963 22.7987H39.2395V26.3225V26.3243ZM39.2395 30.8946H42.2083C42.9383 30.8946 43.5164 30.7553 43.9447 30.4768C44.373 30.1982 44.5852 29.7332 44.5852 29.082C44.5852 28.4307 44.371 27.9526 43.9447 27.674C43.5164 27.3954 42.9383 27.2561 42.2083 27.2561H39.2395V30.8928V30.8946Z" fill="#8B959A"/>
<path d="M50.2929 31.9713C49.4383 31.9713 48.792 31.7398 48.354 31.2786C47.916 30.8155 47.698 30.1097 47.698 29.1553V24.7394H48.866V29.1271C48.866 29.7784 49.0003 30.2565 49.269 30.5633C49.5376 30.8701 49.9562 31.0226 50.5226 31.0226C51.1573 31.0226 51.6654 30.8193 52.0508 30.4146C52.4343 30.0099 52.627 29.4659 52.627 28.7864V24.7394H53.795V31.8433H52.6562V30.2433H52.8431C52.6406 30.7911 52.3175 31.2146 51.8698 31.5176C51.424 31.8188 50.8964 31.9713 50.291 31.9713H50.2929Z" fill="#8B959A"/>
<path d="M55.9128 23.1263V21.8387H57.3534V23.1263H55.9128ZM56.0569 31.8433V24.7394H57.2249V31.8433H56.0569Z" fill="#8B959A"/>
<path d="M59.4871 31.8433V21.4265H60.6551V31.8433H59.4871Z" fill="#8B959A"/>
<path d="M65.6562 31.9713C65.0216 31.9713 64.4648 31.8226 63.984 31.5251C63.5032 31.2277 63.1314 30.8061 62.8666 30.2583C62.6019 29.7106 62.4695 29.0555 62.4695 28.2913C62.4695 27.5271 62.6019 26.857 62.8666 26.3092C63.1314 25.7615 63.5032 25.3417 63.984 25.0499C64.4648 24.7582 65.0216 24.6114 65.6562 24.6114C66.2908 24.6114 66.8748 24.7714 67.3498 25.0932C67.8248 25.4151 68.1441 25.848 68.3076 26.3958H68.1344V21.4283H69.3024V31.8451H68.1499V30.1473H68.3076C68.1538 30.7139 67.8365 31.16 67.3557 31.4856C66.8748 31.8113 66.3084 31.9731 65.6543 31.9731L65.6562 31.9713ZM65.9015 31.0376C66.5828 31.0376 67.1318 30.8042 67.5445 30.3374C67.9572 29.8706 68.1636 29.1892 68.1636 28.2913C68.1636 27.3934 67.9572 26.6989 67.5445 26.232C67.1318 25.7652 66.5828 25.5318 65.9015 25.5318C65.2202 25.5318 64.6731 25.7652 64.2663 26.232C63.8575 26.6989 63.6531 27.3859 63.6531 28.2913C63.6531 29.1967 63.8575 29.8687 64.2663 30.3374C64.6751 30.8042 65.2202 31.0376 65.9015 31.0376Z" fill="#8B959A"/>
<path d="M71.4204 23.1263V21.8387H72.861V23.1263H71.4204ZM71.5645 31.8433V24.7394H72.7325V31.8433H71.5645Z" fill="#8B959A"/>
<path d="M74.9945 31.8433V26.3808C74.9945 26.1173 74.9828 25.8462 74.9575 25.5676C74.9341 25.289 74.9069 25.0142 74.8777 24.7394H76.0009L76.145 26.2961H75.9717C76.182 25.7483 76.5207 25.3323 76.9879 25.0443C77.4532 24.7563 77.9943 24.6133 78.6095 24.6133C79.4641 24.6133 80.1104 24.8373 80.5484 25.2853C80.9864 25.7333 81.2044 26.4391 81.2044 27.401V31.8452H80.0364V27.4725C80.0364 26.8024 79.9001 26.3149 79.6257 26.0081C79.3512 25.7013 78.9268 25.5488 78.3506 25.5488C77.677 25.5488 77.1456 25.7521 76.7504 26.1568C76.3572 26.5634 76.1586 27.1055 76.1586 27.785V31.8471H74.9906L74.9945 31.8433Z" fill="#8B959A"/>
<path d="M86.624 35C85.9991 35 85.4229 34.9247 84.8953 34.7742C84.3678 34.6236 83.8908 34.392 83.4684 34.0815L83.8149 33.2175C84.1127 33.4245 84.4067 33.5902 84.6948 33.7125C84.9829 33.8349 85.2808 33.9271 85.5883 33.9892C85.8959 34.0513 86.223 34.0815 86.5675 34.0815C87.2781 34.0815 87.8173 33.897 88.1813 33.5299C88.5473 33.161 88.7284 32.6377 88.7284 31.9582V29.8782H88.8724C88.7186 30.4354 88.4013 30.8759 87.9205 31.2015C87.4396 31.5271 86.8771 31.689 86.2346 31.689C85.5922 31.689 84.9965 31.546 84.5118 31.258C84.0271 30.97 83.6514 30.5596 83.3886 30.0269C83.1238 29.4942 82.9915 28.8636 82.9915 28.1371C82.9915 27.4105 83.1238 26.7969 83.3886 26.2698C83.6533 25.7409 84.0271 25.3343 84.5118 25.0463C84.9965 24.7583 85.5708 24.6152 86.2346 24.6152C86.8985 24.6152 87.4513 24.7752 87.9283 25.0971C88.4052 25.419 88.7186 25.8613 88.8724 26.4279L88.7284 26.2867L88.8588 24.7432H89.9976C89.9587 25.0162 89.9295 25.2929 89.9119 25.5715C89.8925 25.85 89.8827 26.1211 89.8827 26.3846V31.8057C89.8827 32.8617 89.6063 33.6598 89.0534 34.1982C88.5006 34.7365 87.6908 35.0057 86.6259 35.0057L86.624 35ZM86.4507 30.7535C87.1515 30.7535 87.7044 30.5257 88.1074 30.0665C88.5103 29.609 88.7128 28.9653 88.7128 28.1352C88.7128 27.3051 88.5103 26.6632 88.1074 26.2096C87.7044 25.7559 87.1515 25.53 86.4507 25.53C85.7499 25.53 85.2068 25.7559 84.7941 26.2096C84.3814 26.6632 84.175 27.3051 84.175 28.1352C84.175 28.9653 84.3814 29.609 84.7941 30.0665C85.2068 30.5239 85.7596 30.7535 86.4507 30.7535Z" fill="#8B959A"/>
<path d="M99.3358 31.9713C98.5182 31.9713 97.7882 31.8678 97.1458 31.6608C96.5014 31.4537 95.9408 31.1563 95.46 30.7685L95.8921 29.8349C96.2289 30.0796 96.5676 30.2848 96.9083 30.4504C97.249 30.6161 97.6169 30.7384 98.0101 30.8194C98.4034 30.9003 98.8453 30.9398 99.3358 30.9398C100.19 30.9398 100.825 30.7836 101.238 30.473C101.65 30.1624 101.857 29.7464 101.857 29.2269C101.857 28.7827 101.713 28.4439 101.425 28.2086C101.137 27.9733 100.632 27.7832 99.912 27.642L98.3995 27.3446C97.467 27.1564 96.774 26.8495 96.3165 26.4241C95.861 25.9987 95.6313 25.4246 95.6313 24.698C95.6313 24.1032 95.787 23.5856 96.1004 23.1413C96.4119 22.6971 96.8518 22.3545 97.4183 22.1079C97.9848 21.8632 98.6428 21.739 99.3923 21.739C100.142 21.739 100.771 21.8444 101.366 22.0571C101.962 22.2698 102.47 22.5785 102.894 22.9832L102.476 23.8886C102.024 23.4915 101.551 23.2072 101.057 23.0322C100.562 22.8571 100.002 22.7705 99.3787 22.7705C98.5902 22.7705 97.9692 22.9381 97.5118 23.2731C97.0562 23.6082 96.8265 24.0637 96.8265 24.6397C96.8265 25.1027 96.9706 25.4623 97.2587 25.722C97.5468 25.9818 98.0218 26.1775 98.6856 26.3093L100.214 26.6067C101.193 26.8044 101.915 27.1018 102.377 27.4989C102.838 27.8961 103.068 28.4514 103.068 29.1686C103.068 29.7163 102.916 30.202 102.614 30.6255C102.312 31.049 101.882 31.3803 101.325 31.6156C100.769 31.8509 100.105 31.9695 99.3358 31.9695V31.9713Z" fill="#8B959A"/>
<path d="M107.853 31.9714C107.152 31.9714 106.543 31.8226 106.029 31.5252C105.515 31.2278 105.118 30.8043 104.839 30.2509C104.561 29.6994 104.421 29.0462 104.421 28.2914C104.421 27.5366 104.559 26.8721 104.839 26.3244C105.118 25.7766 105.515 25.355 106.029 25.0576C106.543 24.7602 107.146 24.6115 107.837 24.6115C108.528 24.6115 109.145 24.7602 109.661 25.0576C110.175 25.355 110.574 25.7766 110.856 26.3244C111.141 26.8721 111.281 27.5272 111.281 28.2914C111.281 29.0556 111.139 29.6994 110.856 30.2509C110.572 30.8024 110.175 31.2278 109.661 31.5252C109.147 31.8226 108.544 31.9714 107.853 31.9714ZM107.853 31.0377C108.534 31.0377 109.077 30.8043 109.482 30.3375C109.885 29.8707 110.087 29.1893 110.087 28.2914C110.087 27.3935 109.883 26.699 109.474 26.2321C109.065 25.7653 108.52 25.5319 107.839 25.5319C107.158 25.5319 106.615 25.7653 106.21 26.2321C105.807 26.699 105.604 27.386 105.604 28.2914C105.604 29.1968 105.807 29.8688 106.21 30.3375C106.613 30.8043 107.162 31.0377 107.853 31.0377Z" fill="#8B959A"/>
<path d="M113.099 31.8433V21.4265H114.267V31.8433H113.099Z" fill="#8B959A"/>
<path d="M119.079 31.9713C118.224 31.9713 117.578 31.7398 117.14 31.2786C116.702 30.8155 116.484 30.1097 116.484 29.1553V24.7394H117.652V29.1271C117.652 29.7784 117.786 30.2565 118.055 30.5633C118.324 30.8701 118.742 31.0226 119.309 31.0226C119.943 31.0226 120.451 30.8193 120.837 30.4146C121.22 30.0099 121.413 29.4659 121.413 28.7864V24.7394H122.581V31.8433H121.442V30.2433H121.629C121.427 30.7911 121.104 31.2146 120.656 31.5176C120.21 31.8188 119.683 31.9713 119.077 31.9713H119.079Z" fill="#8B959A"/>
<path d="M127.409 31.9714C126.698 31.9714 126.155 31.7718 125.78 31.369C125.406 30.9681 125.217 30.362 125.217 29.5507V25.6298H123.806V24.7376H125.217V22.7988L126.385 22.4731V24.7376H128.46V25.6298H126.385V29.4227C126.385 29.9893 126.484 30.3921 126.681 30.633C126.878 30.874 127.173 30.9944 127.567 30.9944C127.75 30.9944 127.913 30.9775 128.057 30.9455C128.201 30.9135 128.332 30.8721 128.447 30.825V31.7869C128.312 31.8434 128.151 31.8885 127.964 31.9205C127.777 31.9544 127.592 31.9695 127.409 31.9695V31.9714Z" fill="#8B959A"/>
<path d="M129.743 23.1263V21.8387H131.184V23.1263H129.743ZM129.887 31.8433V24.7394H131.055V31.8433H129.887Z" fill="#8B959A"/>
<path d="M136.3 31.9714C135.599 31.9714 134.99 31.8226 134.476 31.5252C133.962 31.2278 133.565 30.8043 133.286 30.2509C133.008 29.6994 132.868 29.0462 132.868 28.2914C132.868 27.5366 133.006 26.8721 133.286 26.3244C133.565 25.7766 133.962 25.355 134.476 25.0576C134.99 24.7602 135.593 24.6115 136.284 24.6115C136.975 24.6115 137.592 24.7602 138.108 25.0576C138.622 25.355 139.021 25.7766 139.303 26.3244C139.588 26.8721 139.728 27.5272 139.728 28.2914C139.728 29.0556 139.586 29.6994 139.303 30.2509C139.019 30.8024 138.622 31.2278 138.108 31.5252C137.594 31.8226 136.991 31.9714 136.3 31.9714ZM136.3 31.0377C136.981 31.0377 137.524 30.8043 137.929 30.3375C138.332 29.8707 138.534 29.1893 138.534 28.2914C138.534 27.3935 138.33 26.699 137.921 26.2321C137.512 25.7653 136.967 25.5319 136.286 25.5319C135.605 25.5319 135.062 25.7653 134.657 26.2321C134.254 26.699 134.051 27.386 134.051 28.2914C134.051 29.1968 134.254 29.8688 134.657 30.3375C135.06 30.8043 135.609 31.0377 136.3 31.0377Z" fill="#8B959A"/>
<path d="M141.546 31.8433V26.3808C141.546 26.1173 141.534 25.8462 141.509 25.5676C141.486 25.289 141.458 25.0142 141.429 24.7394H142.552L142.696 26.2961H142.523C142.733 25.7483 143.072 25.3323 143.539 25.0443C144.005 24.7563 144.546 24.6133 145.161 24.6133C146.016 24.6133 146.662 24.8373 147.1 25.2853C147.538 25.7333 147.756 26.4391 147.756 27.401V31.8452H146.588V27.4725C146.588 26.8024 146.452 26.3149 146.177 26.0081C145.903 25.7013 145.478 25.5488 144.902 25.5488C144.229 25.5488 143.697 25.7521 143.302 26.1568C142.909 26.5634 142.71 27.1055 142.71 27.785V31.8471H141.542L141.546 31.8433Z" fill="#8B959A"/>
<path d="M152.399 31.9713C151.823 31.9713 151.283 31.8941 150.785 31.7379C150.285 31.5816 149.872 31.3633 149.545 31.079L149.948 30.2715C150.304 30.5445 150.69 30.7477 151.108 30.8795C151.527 31.0113 151.961 31.0772 152.412 31.0772C152.989 31.0772 153.423 30.9755 153.717 30.7722C154.009 30.5689 154.157 30.2885 154.157 29.9308C154.157 29.6579 154.063 29.4376 153.876 29.272C153.689 29.1064 153.384 28.9765 152.961 28.8824L151.622 28.6132C151.007 28.4814 150.546 28.2574 150.238 27.9412C149.93 27.625 149.777 27.2221 149.777 26.7309C149.777 26.3149 149.888 25.9497 150.108 25.6335C150.327 25.3172 150.651 25.0669 151.073 24.8824C151.496 24.6979 151.99 24.6057 152.558 24.6057C153.086 24.6057 153.575 24.6829 154.02 24.8391C154.466 24.9954 154.84 25.2194 155.138 25.5111L154.719 26.3036C154.431 26.0306 154.102 25.8255 153.732 25.6881C153.362 25.5506 152.981 25.4829 152.586 25.4829C152.019 25.4829 151.593 25.5939 151.311 25.816C151.026 26.0382 150.886 26.328 150.886 26.6857C150.886 26.9586 150.976 27.1826 151.153 27.3577C151.33 27.5327 151.606 27.6626 151.982 27.7473L153.323 28.0165C153.978 28.1577 154.464 28.3779 154.785 28.6753C155.107 28.9727 155.268 29.3718 155.268 29.8706C155.268 30.296 155.147 30.6649 154.908 30.9812C154.669 31.2974 154.334 31.5402 153.907 31.7096C153.479 31.879 152.977 31.9637 152.401 31.9637L152.399 31.9713Z" fill="#8B959A"/>
<path d="M16.6909 0C15.6865 0 14.7014 0.0903517 13.7456 0.255997L33.1191 18.9889C33.2884 18.0647 33.3838 17.1141 33.3838 16.141C33.3838 7.22626 25.9105 0 16.6909 0Z" fill="#8B959A"/>
<path d="M0 16.141C0 17.8257 0.268643 19.4501 0.763103 20.9748L10.3252 11.7288L13.7456 15.0361L3.02516 25.4021C6.04447 29.5582 11.0377 32.2782 16.6909 32.2782C23.189 32.2782 28.8149 28.6848 31.5714 23.4463L9.13387 1.75061C3.71429 4.41787 0 9.8578 0 16.141Z" fill="#448E43"/>
</g>
<defs>
<clipPath id="clip0_10_638">
<rect width="156" height="35" fill="white"/>
</clipPath>
</defs>
</svg>
