<svg width="170" height="39" viewBox="0 0 170 39" fill="none" xmlns="http://www.w3.org/2000/svg">
<g clip-path="url(#clip0_10_545)">
<path d="M41.2803 20.9494V0.350342H56.7346V5.14302H47.3666V8.09413H56.024V12.8847H47.3666V16.1567H56.7346V20.9473H41.2803V20.9494Z" fill="white"/>
<path d="M66.3106 20.9494L58.803 0.350342H65.3623L69.7663 14.1117H68.3174L73.343 0.350342H77.8637L82.325 14.1117H80.9355L85.7829 0.350342H91.9285L84.3934 20.9494H79.3402L75.0847 8.91214H75.7635L71.3892 20.9494H66.3063H66.3106Z" fill="white"/>
<path d="M94.7671 20.9494V0.350342H101.15V20.9494H94.7671Z" fill="white"/>
<path d="M105.463 20.9494V0.350342H116.219C118.681 0.350342 120.533 0.950213 121.774 2.14786C123.015 3.3455 123.637 4.95844 123.637 6.98248C123.637 9.00652 123.018 10.5964 121.774 11.8024C120.533 13.0106 118.681 13.6146 116.219 13.6146H111.844V20.9473H105.461L105.463 20.9494ZM111.846 8.82404H115.364C116.112 8.82404 116.664 8.66254 117.018 8.34163C117.373 8.02072 117.551 7.56767 117.551 6.98248C117.551 6.39729 117.373 5.94424 117.018 5.62333C116.664 5.30242 116.112 5.14092 115.364 5.14092H111.846V8.82195V8.82404Z" fill="white"/>
<path d="M126.857 20.9494V0.350342H137.112C139.575 0.350342 141.476 0.93553 142.814 2.10381C144.153 3.27209 144.823 4.88923 144.823 6.95312C144.823 8.31646 144.522 9.49103 143.922 10.4747C143.321 11.4584 142.439 12.2177 141.276 12.7547C140.114 13.2895 138.705 13.558 137.05 13.558L137.258 12.7106H139.002C139.87 12.7106 140.646 12.9581 141.336 13.4552C142.025 13.9523 142.596 14.6004 143.05 15.3975L146.27 20.9494H139.267L135.693 14.4641C135.534 14.1725 135.279 13.9628 134.925 13.8349C134.571 13.709 134.206 13.644 133.832 13.644H133.24V20.9473H126.857V20.9494ZM133.24 9.23305H135.96C136.866 9.23305 137.555 9.06315 138.028 8.72127C138.502 8.38148 138.737 7.85922 138.737 7.15867C138.737 6.45812 138.499 5.97151 138.028 5.64011C137.555 5.30872 136.866 5.14302 135.96 5.14302H133.24V9.23305Z" fill="white"/>
<path d="M148.37 10.6362C148.37 8.51355 148.809 6.65311 149.686 5.05486C150.562 3.4587 151.807 2.21701 153.424 1.32978C155.038 0.442562 156.949 0 159.156 0C161.362 0 163.303 0.442562 164.917 1.32978C166.532 2.21701 167.783 3.4587 168.67 5.05486C169.557 6.65311 170 8.51145 170 10.6362C170 12.7609 169.557 14.6192 168.67 16.2175C167.783 17.8157 166.532 19.0616 164.917 19.9572C163.301 20.8529 161.381 21.3017 159.156 21.3017C156.93 21.3017 155.038 20.8529 153.424 19.9572C151.807 19.0616 150.562 17.8095 149.686 16.2028C148.809 14.5962 148.37 12.7399 148.37 10.6362ZM155.049 10.6362C155.049 12.3498 155.377 13.6859 156.039 14.6381C156.699 15.5924 157.738 16.0707 159.158 16.0707C160.577 16.0707 161.625 15.5883 162.304 14.6234C162.983 13.6586 163.324 12.3309 163.324 10.6362C163.324 8.94143 162.985 7.61794 162.304 6.6636C161.625 5.70926 160.575 5.23104 159.158 5.23104C157.741 5.23104 156.699 5.70297 156.039 6.64892C155.379 7.59277 155.049 8.92255 155.049 10.6362Z" fill="white"/>
<path d="M41.488 35.4826V24.364H45.9175C47.0906 24.364 47.9965 24.6157 48.635 25.1212C49.2735 25.6267 49.5939 26.3419 49.5939 27.2669C49.5939 27.9611 49.3881 28.54 48.9744 29.0015C48.5608 29.465 47.988 29.7691 47.254 29.916V29.6957C48.0707 29.7901 48.7114 30.0712 49.1781 30.5389C49.6448 31.0066 49.876 31.6338 49.876 32.4224C49.876 33.4103 49.5493 34.1675 48.8938 34.694C48.2404 35.2204 47.3155 35.4826 46.1212 35.4826H41.488ZM42.7609 29.3329H45.7287C46.5879 29.3329 47.2306 29.1651 47.6613 28.8274C48.0898 28.4918 48.3062 28.0073 48.3062 27.376C48.3062 26.7446 48.0919 26.2328 47.6613 25.9014C47.2328 25.57 46.5879 25.4043 45.7287 25.4043H42.7609V29.3308V29.3329ZM42.7609 34.4255H45.996C46.7915 34.4255 47.4216 34.2703 47.8883 33.9599C48.355 33.6494 48.5862 33.1314 48.5862 32.4056C48.5862 31.6799 48.3529 31.1472 47.8883 30.8367C47.4216 30.5263 46.7915 30.3711 45.996 30.3711H42.7609V34.4234V34.4255Z" fill="white"/>
<path d="M54.8061 35.6251C53.8748 35.6251 53.1705 35.3671 52.6932 34.8532C52.2159 34.3372 51.9783 33.5507 51.9783 32.4873V27.5667H53.2511V32.4558C53.2511 33.1815 53.3975 33.7143 53.6902 34.0562C53.983 34.398 54.4391 34.5679 55.0564 34.5679C55.748 34.5679 56.3017 34.3414 56.7217 33.8905C57.1396 33.4395 57.3496 32.8333 57.3496 32.0762V27.5667H58.6225V35.4824H57.3815V33.6996H57.5851C57.3645 34.31 57.0123 34.7819 56.5244 35.1196C56.0386 35.4552 55.4637 35.6251 54.804 35.6251H54.8061Z" fill="white"/>
<path d="M60.9307 25.7691V24.3345H62.5005V25.7691H60.9307ZM61.0876 35.4824V27.5666H62.3605V35.4824H61.0876Z" fill="white"/>
<path d="M64.8254 35.4825V23.8752H66.0983V35.4825H64.8254Z" fill="white"/>
<path d="M71.5482 35.6253C70.8566 35.6253 70.2499 35.4596 69.7259 35.1282C69.2019 34.7968 68.7967 34.3269 68.5082 33.7166C68.2197 33.1062 68.0754 32.3763 68.0754 31.5247C68.0754 30.6732 68.2197 29.9265 68.5082 29.3161C68.7967 28.7058 69.2019 28.238 69.7259 27.9129C70.2499 27.5878 70.8566 27.4242 71.5482 27.4242C72.2397 27.4242 72.8762 27.6025 73.3938 27.9612C73.9114 28.3198 74.2593 28.8023 74.4375 29.4126H74.2487V23.8774H75.5215V35.4847H74.2657V33.5928H74.4375C74.2699 34.2242 73.9241 34.7213 73.4001 35.0841C72.8762 35.447 72.2588 35.6274 71.546 35.6274L71.5482 35.6253ZM71.8155 34.5849C72.5579 34.5849 73.1562 34.3248 73.6059 33.8047C74.0556 33.2845 74.2805 32.5252 74.2805 31.5247C74.2805 30.5243 74.0556 29.7503 73.6059 29.2301C73.1562 28.71 72.5579 28.4499 71.8155 28.4499C71.073 28.4499 70.4769 28.71 70.0335 29.2301C69.588 29.7503 69.3653 30.5159 69.3653 31.5247C69.3653 32.5336 69.588 33.2824 70.0335 33.8047C70.479 34.3248 71.073 34.5849 71.8155 34.5849Z" fill="white"/>
<path d="M77.8296 25.7691V24.3345H79.3994V25.7691H77.8296ZM77.9866 35.4824V27.5666H79.2594V35.4824H77.9866Z" fill="white"/>
<path d="M81.7244 35.4826V29.3958C81.7244 29.1021 81.7117 28.8001 81.6841 28.4897C81.6587 28.1793 81.629 27.873 81.5972 27.5668H82.8212L82.9782 29.3014H82.7894C83.0185 28.691 83.3876 28.2275 83.8968 27.9066C84.4038 27.5857 84.9935 27.4263 85.6639 27.4263C86.5952 27.4263 87.2995 27.6759 87.7768 28.1751C88.2541 28.6743 88.4917 29.4608 88.4917 30.5326V35.4847H87.2189V30.6123C87.2189 29.8656 87.0704 29.3224 86.7712 28.9805C86.4721 28.6386 86.0097 28.4687 85.3817 28.4687C84.6477 28.4687 84.0686 28.6952 83.6379 29.1462C83.2094 29.5992 82.993 30.2033 82.993 30.9605V35.4868H81.7202L81.7244 35.4826Z" fill="white"/>
<path d="M94.3977 38.9999C93.7168 38.9999 93.0888 38.916 92.5139 38.7482C91.939 38.5804 91.4193 38.3224 90.9589 37.9763L91.3366 37.0136C91.6611 37.2443 91.9815 37.4289 92.2954 37.5652C92.6094 37.7015 92.934 37.8043 93.2691 37.8735C93.6043 37.9427 93.9607 37.9763 94.3362 37.9763C95.1105 37.9763 95.6981 37.7708 96.0948 37.3617C96.4937 36.9506 96.691 36.3676 96.691 35.6104V33.2927H96.8479C96.6803 33.9135 96.3346 34.4043 95.8106 34.7672C95.2866 35.1301 94.6735 35.3104 93.9735 35.3104C93.2734 35.3104 92.6242 35.151 92.096 34.8301C91.5678 34.5092 91.1584 34.052 90.872 33.4584C90.5835 32.8648 90.4392 32.1622 90.4392 31.3526C90.4392 30.5429 90.5835 29.8592 90.872 29.2719C91.1605 28.6825 91.5678 28.2294 92.096 27.9085C92.6242 27.5876 93.2501 27.4282 93.9735 27.4282C94.6968 27.4282 95.2993 27.6065 95.8191 27.9652C96.3388 28.3238 96.6803 28.8167 96.8479 29.4481L96.691 29.2908L96.8331 27.5708H98.0741C98.0317 27.875 97.9999 28.1833 97.9808 28.4937C97.9595 28.8042 97.9489 29.1062 97.9489 29.3998V35.4405C97.9489 36.6172 97.6477 37.5065 97.0452 38.1063C96.4427 38.7062 95.5602 39.0062 94.3998 39.0062L94.3977 38.9999ZM94.2089 34.268C94.9726 34.268 95.5751 34.0142 96.0142 33.5024C96.4534 32.9928 96.674 32.2754 96.674 31.3505C96.674 30.4255 96.4534 29.7102 96.0142 29.2048C95.5751 28.6993 94.9726 28.4476 94.2089 28.4476C93.4452 28.4476 92.8534 28.6993 92.4036 29.2048C91.9539 29.7102 91.729 30.4255 91.729 31.3505C91.729 32.2754 91.9539 32.9928 92.4036 33.5024C92.8534 34.0121 93.4558 34.268 94.2089 34.268Z" fill="white"/>
<path d="M108.25 35.6251C107.359 35.6251 106.564 35.5098 105.864 35.2791C105.162 35.0483 104.551 34.7169 104.027 34.2849L104.498 33.2445C104.865 33.5172 105.234 33.7458 105.605 33.9304C105.976 34.115 106.377 34.2513 106.806 34.3415C107.234 34.4317 107.716 34.4757 108.25 34.4757C109.182 34.4757 109.873 34.3016 110.323 33.9556C110.773 33.6095 110.998 33.1459 110.998 32.567C110.998 32.0721 110.841 31.6945 110.527 31.4323C110.213 31.1701 109.663 30.9583 108.878 30.801L107.23 30.4696C106.214 30.2599 105.459 29.918 104.96 29.4439C104.464 28.9699 104.213 28.3302 104.213 27.5206C104.213 26.8578 104.383 26.281 104.725 25.786C105.064 25.291 105.543 24.9093 106.161 24.6345C106.778 24.3618 107.495 24.2234 108.312 24.2234C109.129 24.2234 109.814 24.3408 110.463 24.5779C111.112 24.8149 111.666 25.1589 112.128 25.6098L111.672 26.6187C111.18 26.1761 110.664 25.8594 110.126 25.6643C109.587 25.4693 108.976 25.3728 108.297 25.3728C107.438 25.3728 106.761 25.5595 106.263 25.9328C105.766 26.3062 105.516 26.8137 105.516 27.4556C105.516 27.9715 105.673 28.3721 105.987 28.6616C106.301 28.951 106.818 29.1692 107.542 29.316L109.207 29.6474C110.274 29.8676 111.061 30.199 111.564 30.6416C112.067 31.0841 112.317 31.7029 112.317 32.502C112.317 33.1124 112.152 33.6535 111.823 34.1255C111.494 34.5974 111.025 34.9665 110.418 35.2287C109.812 35.4909 109.088 35.623 108.25 35.623V35.6251Z" fill="white"/>
<path d="M117.532 35.6251C116.768 35.6251 116.104 35.4594 115.544 35.128C114.984 34.7966 114.551 34.3247 114.248 33.708C113.944 33.0935 113.792 32.3657 113.792 31.5246C113.792 30.6835 113.942 29.9431 114.248 29.3328C114.551 28.7224 114.984 28.2526 115.544 27.9212C116.104 27.5898 116.761 27.4241 117.515 27.4241C118.268 27.4241 118.94 27.5898 119.502 27.9212C120.062 28.2526 120.497 28.7224 120.805 29.3328C121.115 29.9431 121.267 30.673 121.267 31.5246C121.267 32.3762 121.112 33.0935 120.805 33.708C120.495 34.3226 120.062 34.7966 119.502 35.128C118.942 35.4594 118.285 35.6251 117.532 35.6251ZM117.532 34.5848C118.274 34.5848 118.866 34.3247 119.307 33.8045C119.746 33.2843 119.967 32.5251 119.967 31.5246C119.967 30.5241 119.744 29.7501 119.299 29.23C118.853 28.7098 118.259 28.4497 117.517 28.4497C116.774 28.4497 116.182 28.7098 115.741 29.23C115.302 29.7501 115.081 30.5157 115.081 31.5246C115.081 32.5335 115.302 33.2823 115.741 33.8045C116.18 34.3247 116.778 34.5848 117.532 34.5848Z" fill="white"/>
<path d="M123.249 35.4825V23.8752H124.522V35.4825H123.249Z" fill="white"/>
<path d="M129.766 35.6251C128.834 35.6251 128.13 35.3671 127.653 34.8532C127.175 34.3372 126.938 33.5507 126.938 32.4873V27.5667H128.211V32.4558C128.211 33.1815 128.357 33.7143 128.65 34.0562C128.942 34.398 129.399 34.5679 130.016 34.5679C130.707 34.5679 131.261 34.3414 131.681 33.8905C132.099 33.4395 132.309 32.8333 132.309 32.0762V27.5667H133.582V35.4824H132.341V33.6996H132.545C132.324 34.31 131.972 34.7819 131.484 35.1196C130.998 35.4552 130.423 35.6251 129.763 35.6251H129.766Z" fill="white"/>
<path d="M138.843 35.6252C138.069 35.6252 137.477 35.4029 137.067 34.9541C136.66 34.5073 136.454 33.8319 136.454 32.9279V28.5589H134.916V27.5647H136.454V25.4044L137.727 25.0415V27.5647H139.989V28.5589H137.727V32.7853C137.727 33.4166 137.835 33.8655 138.05 34.134C138.264 34.4024 138.586 34.5367 139.015 34.5367C139.214 34.5367 139.392 34.5178 139.549 34.4821C139.706 34.4465 139.849 34.4003 139.974 34.3479V35.4197C139.827 35.4826 139.651 35.533 139.448 35.5686C139.244 35.6064 139.042 35.6231 138.843 35.6231V35.6252Z" fill="white"/>
<path d="M141.386 25.7691V24.3345H142.956V25.7691H141.386ZM141.543 35.4824V27.5666H142.816V35.4824H141.543Z" fill="white"/>
<path d="M148.532 35.6251C147.768 35.6251 147.104 35.4594 146.544 35.128C145.984 34.7966 145.551 34.3247 145.248 33.708C144.944 33.0935 144.792 32.3657 144.792 31.5246C144.792 30.6835 144.942 29.9431 145.248 29.3328C145.551 28.7224 145.984 28.2526 146.544 27.9212C147.104 27.5898 147.761 27.4241 148.515 27.4241C149.268 27.4241 149.94 27.5898 150.502 27.9212C151.062 28.2526 151.497 28.7224 151.805 29.3328C152.115 29.9431 152.267 30.673 152.267 31.5246C152.267 32.3762 152.112 33.0935 151.805 33.708C151.495 34.3226 151.062 34.7966 150.502 35.128C149.942 35.4594 149.285 35.6251 148.532 35.6251ZM148.532 34.5848C149.274 34.5848 149.866 34.3247 150.307 33.8045C150.746 33.2843 150.967 32.5251 150.967 31.5246C150.967 30.5241 150.744 29.7501 150.299 29.23C149.853 28.7098 149.259 28.4497 148.517 28.4497C147.774 28.4497 147.182 28.7098 146.741 29.23C146.302 29.7501 146.081 30.5157 146.081 31.5246C146.081 32.5335 146.302 33.2823 146.741 33.8045C147.18 34.3247 147.778 34.5848 148.532 34.5848Z" fill="white"/>
<path d="M154.249 35.4826V29.3958C154.249 29.1021 154.236 28.8001 154.208 28.4897C154.183 28.1793 154.153 27.873 154.121 27.5668H155.345L155.502 29.3014H155.314C155.543 28.691 155.912 28.2275 156.421 27.9066C156.928 27.5857 157.518 27.4263 158.188 27.4263C159.119 27.4263 159.824 27.6759 160.301 28.1751C160.778 28.6743 161.016 29.4608 161.016 30.5326V35.4847H159.743V30.6123C159.743 29.8656 159.595 29.3224 159.295 28.9805C158.996 28.6386 158.534 28.4687 157.906 28.4687C157.172 28.4687 156.593 28.6952 156.162 29.1462C155.734 29.5992 155.517 30.2033 155.517 30.9605V35.4868H154.244L154.249 35.4826Z" fill="white"/>
<path d="M166.075 35.6251C165.447 35.6251 164.86 35.5391 164.317 35.365C163.771 35.1909 163.322 34.9476 162.965 34.6309L163.404 33.7311C163.793 34.0352 164.213 34.2617 164.669 34.4085C165.125 34.5553 165.598 34.6288 166.09 34.6288C166.718 34.6288 167.191 34.5155 167.511 34.289C167.83 34.0624 167.991 33.7499 167.991 33.3514C167.991 33.0473 167.889 32.8019 167.685 32.6173C167.482 32.4327 167.149 32.288 166.688 32.1831L165.229 31.8832C164.558 31.7364 164.056 31.4868 163.721 31.1344C163.385 30.782 163.218 30.3332 163.218 29.7857C163.218 29.3222 163.339 28.9153 163.578 28.5629C163.818 28.2106 164.17 27.9316 164.631 27.7261C165.091 27.5205 165.63 27.4177 166.249 27.4177C166.824 27.4177 167.357 27.5037 167.842 27.6778C168.328 27.8519 168.736 28.1015 169.06 28.4266L168.604 29.3096C168.29 29.0055 167.932 28.7769 167.528 28.6238C167.125 28.4706 166.71 28.3951 166.279 28.3951C165.662 28.3951 165.197 28.5189 164.889 28.7664C164.58 29.0139 164.427 29.3369 164.427 29.7354C164.427 30.0395 164.525 30.2891 164.718 30.4842C164.911 30.6793 165.212 30.824 165.621 30.9184L167.083 31.2183C167.796 31.3756 168.326 31.621 168.676 31.9524C169.026 32.2838 169.202 32.7285 169.202 33.2843C169.202 33.7583 169.071 34.1694 168.81 34.5218C168.549 34.8742 168.184 35.1447 167.719 35.3335C167.253 35.5223 166.705 35.6167 166.077 35.6167L166.075 35.6251Z" fill="white"/>
<path d="M18.1889 0C17.0943 0 16.0209 0.100678 14.9792 0.285253L36.0914 21.1591C36.2759 20.1292 36.3799 19.07 36.3799 17.9856C36.3799 8.05211 28.2358 0 18.1889 0Z" fill="white"/>
<path d="M0 17.9857C0 19.8629 0.292752 21.673 0.831586 23.3719L11.2519 13.0693L14.9792 16.7545L3.29665 28.3051C6.58693 32.9363 12.0283 35.9671 18.1888 35.9671C25.27 35.9671 31.4009 31.9631 34.4048 26.1259L9.95358 1.95068C4.04762 4.92277 0 10.9844 0 17.9857Z" fill="white"/>
</g>
<defs>
<clipPath id="clip0_10_545">
<rect width="170" height="39" fill="white"/>
</clipPath>
</defs>
</svg>
