<svg width="34" height="33" viewBox="0 0 34 33" fill="none" xmlns="http://www.w3.org/2000/svg">
<path d="M33.6655 18.0156L24.6405 11.61C24.4212 11.4385 24.0868 11.4385 23.8674 11.61L18.0555 15.7851V8.63603H19.4372C19.8265 8.63603 20.1555 8.29288 20.1555 7.89253C20.1555 7.66376 20.0458 7.43499 19.821 7.26342L10.796 0.85787C10.5767 0.686293 10.2422 0.686293 10.0229 0.85787L1.05273 7.32061C0.833414 7.49219 0.718271 7.83534 0.773101 8.1213C0.882761 8.40726 1.10756 8.63603 1.43654 8.63603H2.81825V28.6534H0.718271C0.328979 28.6534 0 28.9965 0 29.3969V32.2565C0 32.6568 0.334462 33 0.718271 33H31.2311C31.6204 33 31.9494 32.6568 31.9494 32.2565V19.331H33.3311C33.6052 19.331 33.8849 19.1022 33.9945 18.8163C33.9945 18.5303 33.8849 18.1872 33.6601 18.0156H33.6655ZM24.2512 13.0398L27.0202 15.0416H24.2512C23.862 15.0416 23.533 15.3847 23.533 15.7851C23.533 16.1854 23.8674 16.5286 24.2512 16.5286H29.016L31.0118 17.9584H17.5017L24.2567 13.0398H24.2512ZM5.64748 5.77641H10.4122C10.8015 5.77641 11.1305 5.43326 11.1305 5.03291C11.1305 4.63257 10.796 4.28941 10.4122 4.28941H7.64328L10.4122 2.28768L17.1672 7.14903H3.65715L5.65296 5.77641H5.64748ZM1.44203 30.0832H10.467V31.513H1.44203V30.0832ZM22.8695 31.513V26.8804C22.8695 25.9081 23.6426 25.1074 24.5857 25.1074C25.5288 25.1074 26.3019 25.9081 26.3019 26.8804V31.513H22.8695ZM30.5128 20.7608H24.975C24.5857 20.7608 24.2567 21.104 24.2567 21.5043C24.2567 21.9047 24.5912 22.2478 24.975 22.2478H30.5128V31.5702H27.7439V26.9376C27.7439 25.1646 26.3622 23.7348 24.6405 23.7348C22.9189 23.7348 21.5372 25.1646 21.5372 26.9376V31.5702H11.7939V29.3397C11.7939 28.9393 11.4594 28.5962 11.0756 28.5962H4.21093V22.1906H22.2061C22.5954 22.1906 22.9244 21.8475 22.9244 21.4471C22.9244 21.0468 22.5899 20.7608 22.2061 20.7608H4.21093V8.63603H16.6683V16.7573L14.8973 18.0156C14.678 18.1872 14.5628 18.5303 14.6231 18.8163C14.6231 18.8544 14.6414 18.8925 14.678 18.9307C14.7876 19.1594 15.0124 19.331 15.2866 19.331H30.5128V20.7608Z" fill="white"/>
<path d="M15.2811 16.4714V10.7522C15.2811 10.3518 14.9466 10.0087 14.5628 10.0087H6.25611C5.86682 10.0087 5.53784 10.3518 5.53784 10.7522V16.4714C5.53784 16.8718 5.8723 17.2149 6.25611 17.2149H14.5628C14.9521 17.2149 15.2811 16.8718 15.2811 16.4714ZM13.8994 12.9255H12.5177V11.4957H13.8994V12.9255ZM11.1305 12.9255H9.74878V11.4957H11.1305V12.9255ZM6.97987 11.4957H8.36158V12.9255H6.97987V11.4957ZM6.97987 14.3553H8.36158V15.7851H6.97987V14.3553ZM9.74329 14.3553H11.125V15.7851H9.74329V14.3553ZM13.8994 15.7851H12.5177V14.3553H13.8994V15.7851Z" fill="white"/>
<path d="M14.5628 23.6204H6.25611C5.86682 23.6204 5.53784 23.9636 5.53784 24.3639V27.2235C5.53784 27.6239 5.8723 27.967 6.25611 27.967H14.5628C14.9521 27.967 15.2811 27.6239 15.2811 27.2235V24.3639C15.2811 23.9636 14.9466 23.6204 14.5628 23.6204ZM13.8994 26.48H6.97987V25.0502H13.8994V26.48Z" fill="white"/>
<path d="M23.2588 6.80592C23.2588 7.77819 24.0319 8.57889 24.975 8.57889H26.417C26.5815 9.37958 27.3052 10.0087 28.1332 10.0087H31.6203C32.5634 10.0087 33.3365 9.208 33.3365 8.23573C33.3365 7.26346 32.5031 6.46277 31.5655 6.46277H31.1762C31.0117 5.66208 30.288 5.03296 29.46 5.03296H24.975C24.0319 5.03296 23.2588 5.83365 23.2588 6.80592ZM24.975 6.46277H29.46C29.6245 6.46277 29.7945 6.63435 29.7945 6.80592V6.92031C29.7397 7.14908 29.7397 7.37785 29.9042 7.54942C30.0138 7.721 30.2386 7.83539 30.458 7.83539H31.5655C31.73 7.83539 31.9 8.00696 31.9 8.17854C31.9 8.35012 31.7355 8.52169 31.5655 8.52169H28.0783C27.9138 8.52169 27.7439 8.35012 27.7439 8.17854V8.06415C27.7987 7.83539 27.7987 7.60662 27.6342 7.43504C27.4697 7.26346 27.2998 7.14908 27.0804 7.14908H24.9201C24.7556 7.14908 24.5857 6.9775 24.5857 6.80592C24.6405 6.63435 24.7502 6.46277 24.975 6.46277Z" fill="white"/>
<path d="M21.8716 5.03293C23.1985 5.03293 24.306 3.88908 24.306 2.51646C24.306 1.14385 23.1985 0 21.8716 0C20.5447 0 19.4371 1.14385 19.4371 2.51646C19.4371 3.88908 20.4899 5.03293 21.8716 5.03293ZM21.8716 1.487C22.4254 1.487 22.9243 1.94454 22.9243 2.57366C22.9243 3.20277 22.4254 3.60312 21.8716 3.60312C21.3178 3.60312 20.8188 3.14558 20.8188 2.51646C20.8188 1.88735 21.263 1.487 21.8716 1.487Z" fill="white"/>
</svg>
