<svg width="39" height="39" viewBox="0 0 39 39" fill="none" xmlns="http://www.w3.org/2000/svg">
<g clip-path="url(#clip0_16_654)">
<path d="M23.7426 29.7133C23.5113 29.7133 23.2842 29.6309 23.0996 29.4718L19.6824 26.5297H11.9658C10.9333 26.5297 10.0933 25.6896 10.0933 24.6571V13.2315C10.0933 12.199 10.9333 11.3589 11.9658 11.3589H27.0349C28.0674 11.3589 28.9075 12.199 28.9075 13.2315V24.6571C28.9075 25.6896 28.0674 26.5297 27.0349 26.5297H24.7362V28.721C24.7362 29.1133 24.5147 29.4579 24.1585 29.6217C24.0238 29.6832 23.8828 29.7137 23.7426 29.7137V29.7133ZM11.9658 12.0708C11.3256 12.0708 10.8047 12.5917 10.8047 13.2319V24.6576C10.8047 25.2978 11.3256 25.8187 11.9658 25.8187H19.8142C19.8994 25.8187 19.9817 25.8492 20.0465 25.9047L23.564 28.9329C23.6862 29.0383 23.8134 28.9976 23.8624 28.975C23.9114 28.9523 24.0252 28.8829 24.0252 28.721V26.174C24.0252 25.9774 24.1844 25.8182 24.381 25.8182H27.0353C27.6756 25.8182 28.1965 25.2973 28.1965 24.6571V13.2315C28.1965 12.5912 27.6756 12.0704 27.0353 12.0704H11.9663L11.9658 12.0708Z" fill="white"/>
<path d="M23.7424 29.9446C23.4533 29.9446 23.1711 29.8387 22.9482 29.6467L19.5962 26.7606H11.9657C10.8055 26.7606 9.86182 25.8169 9.86182 24.6567V13.2311C9.86182 12.0709 10.8055 11.1272 11.9657 11.1272H27.0347C28.1949 11.1272 29.1386 12.0709 29.1386 13.2311V24.6567C29.1386 25.8169 28.1949 26.7606 27.0347 26.7606H24.9674V28.7206C24.9674 29.2045 24.694 29.6301 24.2545 29.8313C24.0912 29.9062 23.9192 29.9442 23.7424 29.9442V29.9446ZM11.9657 11.5903C11.0609 11.5903 10.3244 12.3267 10.3244 13.2315V24.6572C10.3244 25.562 11.0609 26.2985 11.9657 26.2985H19.7678L23.2502 29.2965C23.389 29.4164 23.5639 29.482 23.7424 29.482C23.8521 29.482 23.9594 29.4585 24.0616 29.4113C24.335 29.2859 24.5048 29.0218 24.5048 28.7211V26.2985H27.0347C27.9396 26.2985 28.676 25.562 28.676 24.6572V13.2315C28.676 12.3267 27.9396 11.5903 27.0347 11.5903H11.9657ZM23.742 29.2336C23.624 29.2336 23.5088 29.1911 23.4126 29.1078L19.8955 26.0797C19.8728 26.0602 19.8442 26.0496 19.8141 26.0496H11.9657C11.1978 26.0496 10.5733 25.4251 10.5733 24.6572V13.2315C10.5733 12.4636 11.1978 11.8391 11.9657 11.8391H27.0347C27.8026 11.8391 28.4271 12.4636 28.4271 13.2315V24.6572C28.4271 25.4251 27.8026 26.0496 27.0347 26.0496H24.3804C24.3119 26.0496 24.2559 26.1056 24.2559 26.174V28.7211C24.2559 28.926 24.1444 29.0995 23.958 29.1851C23.8872 29.2174 23.8137 29.2336 23.7415 29.2336H23.742ZM11.9657 12.3022C11.4531 12.3022 11.0359 12.7195 11.0359 13.232V24.6576C11.0359 25.1702 11.4531 25.5875 11.9657 25.5875H19.8141C19.9547 25.5875 20.0907 25.6379 20.1971 25.7295L23.7147 28.7576C23.7263 28.7673 23.7378 28.7775 23.7656 28.765C23.7933 28.7521 23.7933 28.7368 23.7933 28.7215V26.1745C23.7933 25.8507 24.0565 25.5875 24.3804 25.5875H27.0347C27.5473 25.5875 27.9645 25.1702 27.9645 24.6576V13.232C27.9645 12.7195 27.5473 12.3022 27.0347 12.3022H11.9657Z" fill="white"/>
<path d="M14.9153 20.7855C13.9004 20.7855 13.0742 19.9598 13.0742 18.9444C13.0742 17.929 13.9 17.1033 14.9153 17.1033C15.9307 17.1033 16.7565 17.929 16.7565 18.9444C16.7565 19.9598 15.9307 20.7855 14.9153 20.7855ZM14.9153 17.8147C14.2927 17.8147 13.7857 18.3213 13.7857 18.9444C13.7857 19.5675 14.2922 20.0741 14.9153 20.0741C15.5385 20.0741 16.045 19.5675 16.045 18.9444C16.045 18.3213 15.5385 17.8147 14.9153 17.8147Z" fill="white"/>
<path d="M14.9152 21.0169C13.7726 21.0169 12.8428 20.0871 12.8428 18.9445C12.8428 17.8019 13.7726 16.8721 14.9152 16.8721C16.0578 16.8721 16.9876 17.8019 16.9876 18.9445C16.9876 20.0871 16.0578 21.0169 14.9152 21.0169ZM14.9152 17.3347C14.0275 17.3347 13.3054 18.0568 13.3054 18.9445C13.3054 19.8322 14.0275 20.5543 14.9152 20.5543C15.8029 20.5543 16.525 19.8322 16.525 18.9445C16.525 18.0568 15.8029 17.3347 14.9152 17.3347ZM14.9152 20.305C14.1649 20.305 13.5542 19.6944 13.5542 18.944C13.5542 18.1937 14.1649 17.5831 14.9152 17.5831C15.6655 17.5831 16.2762 18.1937 16.2762 18.944C16.2762 19.6944 15.6655 20.305 14.9152 20.305ZM14.9152 18.0461C14.4198 18.0461 14.0168 18.4491 14.0168 18.9445C14.0168 19.4399 14.4198 19.8429 14.9152 19.8429C15.4106 19.8429 15.8136 19.4399 15.8136 18.9445C15.8136 18.4491 15.4106 18.0461 14.9152 18.0461Z" fill="white"/>
<path d="M19.5242 20.7855C18.5093 20.7855 17.6831 19.9598 17.6831 18.9444C17.6831 17.929 18.5088 17.1033 19.5242 17.1033C20.5396 17.1033 21.3654 17.929 21.3654 18.9444C21.3654 19.9598 20.5396 20.7855 19.5242 20.7855ZM19.5242 17.8147C18.9016 17.8147 18.3946 18.3213 18.3946 18.9444C18.3946 19.5675 18.9011 20.0741 19.5242 20.0741C20.1473 20.0741 20.6539 19.5675 20.6539 18.9444C20.6539 18.3213 20.1473 17.8147 19.5242 17.8147Z" fill="white"/>
<path d="M19.5241 21.0169C18.3815 21.0169 17.4517 20.0871 17.4517 18.9445C17.4517 17.8019 18.3815 16.8721 19.5241 16.8721C20.6667 16.8721 21.5965 17.8019 21.5965 18.9445C21.5965 20.0871 20.6667 21.0169 19.5241 21.0169ZM19.5241 17.3347C18.6364 17.3347 17.9143 18.0568 17.9143 18.9445C17.9143 19.8322 18.6364 20.5543 19.5241 20.5543C20.4118 20.5543 21.1339 19.8322 21.1339 18.9445C21.1339 18.0568 20.4118 17.3347 19.5241 17.3347ZM19.5241 20.305C18.7738 20.305 18.1631 19.6944 18.1631 18.944C18.1631 18.1937 18.7738 17.5831 19.5241 17.5831C20.2744 17.5831 20.885 18.1937 20.885 18.944C20.885 19.6944 20.2744 20.305 19.5241 20.305ZM19.5241 18.0461C19.0286 18.0461 18.6257 18.4491 18.6257 18.9445C18.6257 19.4399 19.0286 19.8429 19.5241 19.8429C20.0195 19.8429 20.4224 19.4399 20.4224 18.9445C20.4224 18.4491 20.0195 18.0461 19.5241 18.0461Z" fill="white"/>
<path d="M24.1336 20.7855C23.1187 20.7855 22.2925 19.9598 22.2925 18.9444C22.2925 17.929 23.1182 17.1033 24.1336 17.1033C25.149 17.1033 25.9747 17.929 25.9747 18.9444C25.9747 19.9598 25.149 20.7855 24.1336 20.7855ZM24.1336 17.8147C23.511 17.8147 23.004 18.3213 23.004 18.9444C23.004 19.5675 23.5105 20.0741 24.1336 20.0741C24.7567 20.0741 25.2633 19.5675 25.2633 18.9444C25.2633 18.3213 24.7567 17.8147 24.1336 17.8147Z" fill="white"/>
<path d="M24.1335 21.0169C22.9909 21.0169 22.061 20.0871 22.061 18.9445C22.061 17.8019 22.9909 16.8721 24.1335 16.8721C25.2761 16.8721 26.2059 17.8019 26.2059 18.9445C26.2059 20.0871 25.2761 21.0169 24.1335 21.0169ZM24.1335 17.3347C23.2457 17.3347 22.5236 18.0568 22.5236 18.9445C22.5236 19.8322 23.2457 20.5543 24.1335 20.5543C25.0212 20.5543 25.7433 19.8322 25.7433 18.9445C25.7433 18.0568 25.0212 17.3347 24.1335 17.3347ZM24.1335 20.305C23.3831 20.305 22.7725 19.6944 22.7725 18.944C22.7725 18.1937 23.3831 17.5831 24.1335 17.5831C24.8838 17.5831 25.4944 18.1937 25.4944 18.944C25.4944 19.6944 24.8838 20.305 24.1335 20.305ZM24.1335 18.0461C23.638 18.0461 23.2351 18.4491 23.2351 18.9445C23.2351 19.4399 23.638 19.8429 24.1335 19.8429C24.6289 19.8429 25.0318 19.4399 25.0318 18.9445C25.0318 18.4491 24.6289 18.0461 24.1335 18.0461Z" fill="white"/>
<path d="M19.5004 38.7686C16.8992 38.7686 14.3757 38.2593 11.9999 37.254C9.70539 36.2835 7.64453 34.8943 5.8751 33.1249C4.10568 31.3555 2.71651 29.2946 1.74598 27.0002C0.741225 24.6243 0.231445 22.1008 0.231445 19.4996C0.231445 16.8985 0.740763 14.375 1.74598 11.9991C2.71651 9.70466 4.10568 7.6438 5.8751 5.87437C7.64453 4.10495 9.70539 2.71577 11.9999 1.74525C14.3757 0.740493 16.8992 0.230713 19.5004 0.230713C22.1015 0.230713 24.625 0.74003 27.0009 1.74525C29.2954 2.71577 31.3562 4.10495 33.1257 5.87437C34.8951 7.6438 36.2843 9.70466 37.2548 11.9991C38.2595 14.375 38.7693 16.8985 38.7693 19.4996C38.7693 22.1008 38.26 24.6243 37.2548 27.0002C36.2843 29.2946 34.8951 31.3555 33.1257 33.1249C31.3562 34.8943 29.2954 36.2835 27.0009 37.254C24.625 38.2588 22.1015 38.7686 19.5004 38.7686ZM19.5004 0.942647C14.5437 0.942647 9.88349 2.87305 6.37841 6.37767C2.87333 9.88276 0.942916 14.5429 0.942916 19.4996C0.942916 24.4564 2.87333 29.1165 6.37841 32.6216C9.88349 36.1267 14.5437 38.0571 19.5004 38.0571C24.4571 38.0571 29.1173 36.1267 32.6223 32.6216C36.1274 29.1165 38.0574 24.4564 38.0574 19.4996C38.0574 14.5429 36.127 9.88276 32.6223 6.37767C29.1173 2.87259 24.4571 0.942647 19.5004 0.942647Z" fill="white"/>
<path d="M19.5002 39C16.8681 39 14.3141 38.4842 11.91 37.4674C9.58774 36.4853 7.50237 35.0795 5.71166 33.2888C3.92096 31.4981 2.51513 29.4127 1.53304 27.0905C0.515793 24.6859 0 22.1324 0 19.5002C0 16.8681 0.515794 14.3141 1.53258 11.91C2.51467 9.58774 3.92049 7.50237 5.7112 5.71166C7.5019 3.92096 9.58728 2.51513 11.9095 1.53304C14.3141 0.515793 16.8676 0 19.5002 0C22.1329 0 24.6864 0.515794 27.0905 1.53258C29.4127 2.51467 31.4981 3.92049 33.2888 5.7112C35.0795 7.5019 36.4853 9.58728 37.4674 11.9095C38.4842 14.3141 39 16.8676 39 19.4998C39 22.1319 38.4842 24.6859 37.4674 27.09C36.4853 29.4123 35.0795 31.4976 33.2888 33.2883C31.4981 35.079 29.4127 36.4849 27.0905 37.467C24.6859 38.4842 22.1324 38.9995 19.5002 38.9995V39ZM19.5002 0.462595C16.9301 0.462595 14.4371 0.965899 12.0899 1.95863C9.82321 2.91759 7.78686 4.29011 6.03872 6.03825C4.29057 7.78686 2.91759 9.82274 1.95909 12.0895C0.966361 14.4367 0.463058 16.9296 0.463058 19.4998C0.463058 22.0699 0.966361 24.5629 1.95909 26.9101C2.91805 29.1768 4.29057 31.2131 6.03872 32.9613C7.78686 34.7094 9.82321 36.0824 12.0899 37.0409C14.4371 38.0336 16.9301 38.5369 19.5002 38.5369C22.0704 38.5369 24.5633 38.0336 26.9105 37.0409C29.1777 36.0819 31.2136 34.7094 32.9617 32.9613C34.7099 31.2131 36.0829 29.1768 37.0414 26.9101C38.0341 24.5629 38.5374 22.0699 38.5374 19.4998C38.5374 16.9296 38.0341 14.4367 37.0414 12.0895C36.0824 9.82274 34.7099 7.78686 32.9617 6.03825C31.2136 4.29011 29.1773 2.91712 26.9105 1.95863C24.5633 0.965899 22.0704 0.462595 19.5002 0.462595ZM19.5002 38.2885C14.4815 38.2885 9.76353 36.3341 6.21496 32.7855C2.66594 29.2369 0.711471 24.5185 0.711471 19.5002C0.711471 14.482 2.66594 9.76353 6.2145 6.2145C9.76307 2.66547 14.4815 0.711471 19.5002 0.711471C24.5189 0.711471 29.2369 2.66594 32.7855 6.2145C36.3341 9.76307 38.2885 14.4815 38.2885 19.5002C38.2885 24.5189 36.3341 29.2369 32.7855 32.7855C29.2369 36.3341 24.5185 38.2885 19.5002 38.2885ZM19.5002 1.17407C14.6051 1.17407 10.0032 3.08042 6.54202 6.54156C3.08042 10.0027 1.17407 14.6051 1.17407 19.5002C1.17407 24.3954 3.08042 28.9973 6.54156 32.4584C10.0027 35.9196 14.6051 37.8259 19.4998 37.8259C24.3945 37.8259 28.9968 35.9196 32.458 32.4584C35.9191 28.9973 37.8255 24.3949 37.8255 19.5002C37.8255 14.6055 35.9191 10.0032 32.458 6.54202C28.9964 3.08088 24.3945 1.17453 19.4998 1.17453L19.5002 1.17407Z" fill="white"/>
</g>
<defs>
<clipPath id="clip0_16_654">
<rect width="39" height="39" fill="white"/>
</clipPath>
</defs>
</svg>
