<svg width="80" height="73" viewBox="0 0 80 73" fill="none" xmlns="http://www.w3.org/2000/svg">
<g clip-path="url(#clip0_10_247)">
<path d="M54.1269 51.098L44.2057 61.7322C43.7357 62.2352 43.1624 62.5807 42.5242 62.7534C41.9051 62.9224 41.2363 62.9224 40.5675 62.7381C39.9063 62.5615 39.3254 62.2275 38.8515 61.7706C38.3814 61.3176 38.026 60.7456 37.8235 60.0891L27.6271 27.3418C27.4246 26.693 27.394 26.0404 27.5239 25.4223C27.6577 24.7927 27.9596 24.2091 28.4221 23.7139C28.8807 23.2225 29.4386 22.8846 30.0577 22.708C30.6578 22.5353 31.3074 22.5276 31.9686 22.6889L65.1602 30.7855C65.8252 30.9467 66.4137 31.2653 66.8953 31.7107C67.3806 32.156 67.7475 32.7165 67.9692 33.3653C68.1908 34.0218 68.2329 34.6936 68.1068 35.3271C67.9768 35.9759 67.6711 36.5786 67.201 37.0815L57.2951 47.7004L55.4339 45.9421L65.3398 35.3232C65.4812 35.1735 65.5691 35.0046 65.6035 34.8242C65.6418 34.6322 65.6226 34.4172 65.5462 34.1869C65.466 33.9489 65.336 33.7454 65.1755 33.5957C65.0112 33.4459 64.801 33.3346 64.5602 33.2732L31.3686 25.1766C31.1469 25.1228 30.9367 25.1228 30.7457 25.1766C30.5775 25.2265 30.417 25.3225 30.2794 25.4722C30.1456 25.6142 30.0577 25.7793 30.0195 25.9559C29.9775 26.144 29.9928 26.3552 30.0616 26.5778L40.2579 59.3251C40.3305 59.5632 40.4566 59.7628 40.6172 59.9202C40.7777 60.0738 40.984 60.1889 41.2248 60.2542C41.4541 60.3156 41.6719 60.3195 41.863 60.2657C42.0388 60.2196 42.2032 60.116 42.3446 59.9701L52.2657 49.3359L54.1269 51.0942V51.098Z" fill="white" stroke="white" stroke-width="0.75" stroke-miterlimit="10"/>
<path d="M63.9717 55.2367L61.6748 57.6975C61.3997 57.9931 61.2697 58.3732 61.2812 58.7533C61.2927 59.1295 61.4494 59.5019 61.7436 59.7821L72.0126 69.4489L72.0432 69.4758C72.6699 70.0517 73.4725 70.3242 74.2674 70.2974C74.9821 70.2743 75.6929 70.0056 76.2585 69.5027L76.4878 69.2723C77.0611 68.6466 77.3286 67.8404 77.3057 67.0418C77.2789 66.2318 76.9464 65.4333 76.3158 64.8382L76.2853 64.8113L66.0469 55.1714C65.7526 54.895 65.3743 54.7645 64.9959 54.776C64.6214 54.7875 64.2507 54.9449 63.9717 55.2405M59.8175 55.9392L62.1143 53.4784C62.871 52.6683 63.8876 52.2422 64.9157 52.2115C65.9437 52.1769 66.987 52.5378 67.7972 53.298L78.0662 62.9647L78.0968 62.9916C79.2203 64.0627 79.8127 65.5024 79.8586 66.9574C79.9006 68.255 79.5108 69.5641 78.6777 70.6467V70.712L78.3031 71.0882C77.2369 72.2169 75.8037 72.8081 74.3553 72.858C72.8954 72.9041 71.4164 72.3973 70.2737 71.3186L70.2431 71.2917L60.0047 61.6518C59.1984 60.8916 58.7742 59.8704 58.7436 58.8377C58.7092 57.805 59.0684 56.757 59.8251 55.9431L59.8175 55.9392Z" fill="white"/>
<path d="M63.9717 55.2367L61.6748 57.6975C61.3997 57.9931 61.2697 58.3732 61.2812 58.7533C61.2927 59.1295 61.4494 59.5019 61.7436 59.7821L72.0126 69.4489L72.0432 69.4758C72.6699 70.0517 73.4725 70.3242 74.2674 70.2974C74.9821 70.2743 75.6929 70.0056 76.2585 69.5027L76.4878 69.2723C77.0611 68.6466 77.3286 67.8404 77.3057 67.0418C77.2789 66.2318 76.9464 65.4333 76.3158 64.8382L76.2853 64.8113L66.0469 55.1714C65.7526 54.895 65.3743 54.7645 64.9959 54.776C64.6214 54.7875 64.2507 54.9449 63.9717 55.2405M59.8175 55.9392L62.1143 53.4784C62.871 52.6683 63.8876 52.2422 64.9157 52.2115C65.9437 52.1769 66.987 52.5378 67.7972 53.298L78.0662 62.9647L78.0968 62.9916C79.2203 64.0627 79.8127 65.5024 79.8586 66.9574C79.9006 68.255 79.5108 69.5641 78.6777 70.6467V70.712L78.3031 71.0882C77.2369 72.2169 75.8037 72.8081 74.3553 72.858C72.8954 72.9041 71.4164 72.3973 70.2737 71.3186L70.2431 71.2917L60.0047 61.6518C59.1984 60.8916 58.7742 59.8704 58.7436 58.8377C58.7092 57.805 59.0684 56.757 59.8251 55.9431L59.8175 55.9392Z" stroke="white" stroke-width="0.75" stroke-miterlimit="10"/>
<path d="M57.7844 52.6682C58.2965 53.152 58.3233 53.9658 57.8379 54.4803C57.3564 54.9947 56.5462 55.0216 56.0341 54.534L47.5078 46.5065C46.2963 45.3663 46.1511 43.9497 46.6173 42.7557C46.7893 42.3142 47.0492 41.9073 47.374 41.5579C47.6913 41.2163 48.0811 40.9322 48.5129 40.7287C49.6709 40.1836 51.0888 40.2373 52.3002 41.3775L60.8265 49.405C61.3386 49.8887 61.3654 50.7026 60.88 51.2171C60.3985 51.7315 59.5883 51.7584 59.0761 51.2708L50.5499 43.2433C50.225 42.94 49.8734 42.9131 49.5906 43.0437C49.4645 43.1051 49.3422 43.1972 49.2352 43.3124C49.132 43.4199 49.0518 43.5504 48.9983 43.6848C48.8875 43.9727 48.9333 44.3298 49.2582 44.633L57.7844 52.6606V52.6682Z" fill="white" stroke="white" stroke-width="0.75" stroke-miterlimit="10"/>
<path d="M30.31 56.7338H2.70191V67.6675H30.31V56.7338ZM1.42163 54.1616H31.5903C32.2973 54.1616 32.8705 54.7375 32.8705 55.4477V68.9536C32.8705 69.6638 32.2973 70.2397 31.5903 70.2397H1.42163C0.714615 70.2397 0.141357 69.6638 0.141357 68.9536V55.4477C0.141357 54.7375 0.714615 54.1616 1.42163 54.1616Z" fill="white" stroke="white" stroke-width="0.75" stroke-miterlimit="10"/>
<path d="M60.8953 67.6675C61.6023 67.6675 62.1755 68.2433 62.1755 68.9536C62.1755 69.6638 61.6023 70.2397 60.8953 70.2397H31.5903C30.8833 70.2397 30.3101 69.6638 30.3101 68.9536V55.4477C30.3101 54.7375 30.8833 54.1616 31.5903 54.1616C32.2974 54.1616 32.8706 54.7375 32.8706 55.4477V67.6675H60.8953Z" fill="white" stroke="white" stroke-width="0.75" stroke-miterlimit="10"/>
<path d="M25.4832 40.6558C26.1902 40.6558 26.7634 41.2316 26.7634 41.9419C26.7634 42.6521 26.1902 43.2279 25.4832 43.2279H1.42163C0.714615 43.2279 0.141357 42.6521 0.141357 41.9419V28.436C0.141357 27.7258 0.714615 27.1499 1.42163 27.1499H22.2003C22.9073 27.1499 23.4806 27.7258 23.4806 28.436C23.4806 29.1462 22.9073 29.7221 22.2003 29.7221H2.70191V40.6558H25.4793H25.4832Z" fill="white" stroke="white" stroke-width="0.75" stroke-miterlimit="10"/>
<path d="M22.9762 27.1538C23.6832 27.1538 24.2565 27.7297 24.2565 28.4399C24.2565 29.1501 23.6832 29.726 22.9762 29.726H16.441C15.734 29.726 15.1608 29.1501 15.1608 28.4399V14.934C15.1608 14.2238 15.734 13.6479 16.441 13.6479H46.6097C47.3167 13.6479 47.8899 14.2238 47.8899 14.934V20.1821C47.8899 20.8923 47.3167 21.4681 46.6097 21.4681C45.9027 21.4681 45.3294 20.8923 45.3294 20.1821V16.2201H17.7213V27.1538H22.9762Z" fill="white" stroke="white" stroke-width="0.75" stroke-miterlimit="10"/>
<path d="M47.8899 20.9652C47.8899 21.6755 47.3166 22.2513 46.6096 22.2513C45.9026 22.2513 45.3293 21.6755 45.3293 20.9652V14.934C45.3293 14.2238 45.9026 13.6479 46.6096 13.6479H76.7783C77.4853 13.6479 78.0585 14.2238 78.0585 14.934V28.4399C78.0585 29.1501 77.4853 29.726 76.7783 29.726H71.3438C70.6368 29.726 70.0635 29.1501 70.0635 28.4399C70.0635 27.7297 70.6368 27.1538 71.3438 27.1538H75.498V16.2201H47.8899V20.9652Z" fill="white" stroke="white" stroke-width="0.75" stroke-miterlimit="10"/>
<path d="M30.31 2.71434H2.70191V13.648H30.31V2.71434ZM1.42163 0.145996H31.5903C32.2973 0.145996 32.8705 0.721857 32.8705 1.43209V14.9379C32.8705 15.6482 32.2973 16.224 31.5903 16.224H1.42163C0.714615 16.224 0.141357 15.6482 0.141357 14.9379V1.42825C0.145179 0.718018 0.714615 0.145996 1.42163 0.145996Z" fill="white" stroke="white" stroke-width="0.75" stroke-miterlimit="10"/>
<path d="M60.4787 2.71427H32.8706V13.648H60.4787V2.71427ZM31.5903 0.145929H61.759C62.466 0.145929 63.0392 0.72179 63.0392 1.43202V14.9379C63.0392 15.6481 62.466 16.224 61.759 16.224H31.5903C30.8833 16.224 30.3101 15.6481 30.3101 14.9379V1.42818C30.3101 0.717951 30.8833 0.14209 31.5903 0.14209V0.145929Z" fill="white" stroke="white" stroke-width="0.75" stroke-miterlimit="10"/>
<path d="M30.4935 54.1616C31.2005 54.1616 31.7737 54.7375 31.7737 55.4477C31.7737 56.1579 31.2005 56.7338 30.4935 56.7338H16.4448C15.7378 56.7338 15.1646 56.1579 15.1646 55.4477V41.9419C15.1646 41.2316 15.7378 40.6558 16.4448 40.6558H26.7787C27.4858 40.6558 28.059 41.2316 28.059 41.9419C28.059 42.6521 27.4858 43.2279 26.7787 43.2279H17.7251V54.1616H30.4935Z" fill="white" stroke="white" stroke-width="0.75" stroke-miterlimit="10"/>
<path d="M68.6686 43.2279C67.9616 43.2279 67.3883 42.6521 67.3883 41.9419C67.3883 41.2316 67.9616 40.6558 68.6686 40.6558H76.7783C77.4853 40.6558 78.0585 41.2316 78.0585 41.9419V54.4035C78.0585 55.1137 77.4853 55.6896 76.7783 55.6896C76.0712 55.6896 75.498 55.1137 75.498 54.4035V43.2279H68.6686Z" fill="white" stroke="white" stroke-width="0.75" stroke-miterlimit="10"/>
<path d="M75.498 2.71427H62.9742V13.648H75.498V2.71427ZM61.694 0.145929H76.7783C77.4853 0.145929 78.0586 0.72179 78.0586 1.43202V14.9379C78.0586 15.6481 77.4853 16.224 76.7783 16.224H61.694C60.987 16.224 60.4137 15.6481 60.4137 14.9379V1.42818C60.4137 0.717951 60.987 0.14209 61.694 0.14209V0.145929Z" fill="white" stroke="white" stroke-width="0.75" stroke-miterlimit="10"/>
<path d="M73.0712 29.726C72.3642 29.726 71.791 29.1501 71.791 28.4399C71.791 27.7297 72.3642 27.1538 73.0712 27.1538H76.7783C77.4853 27.1538 78.0586 27.7297 78.0586 28.4399V41.9458C78.0586 42.656 77.4853 43.2319 76.7783 43.2319H68.7756C68.0686 43.2319 67.4954 42.656 67.4954 41.9458C67.4954 41.2355 68.0686 40.6597 68.7756 40.6597H75.498V29.726H73.0712Z" fill="white" stroke="white" stroke-width="0.75" stroke-miterlimit="10"/>
<path d="M15.2257 16.2201H2.70191V27.1538H15.2257V16.2201ZM1.42163 13.6479H16.5059C17.213 13.6479 17.7862 14.2238 17.7862 14.934V28.4399C17.7862 29.1501 17.213 29.726 16.5059 29.726H1.42163C0.714615 29.726 0.141357 29.1501 0.141357 28.4399V14.934C0.141357 14.2238 0.714615 13.6479 1.42163 13.6479Z" fill="white" stroke="white" stroke-width="0.75" stroke-miterlimit="10"/>
<path d="M15.2257 43.2279H2.70191V54.1616H15.2257V43.2279ZM1.42163 40.6558H16.5059C17.213 40.6558 17.7862 41.2316 17.7862 41.9419V55.4477C17.7862 56.1579 17.213 56.7338 16.5059 56.7338H1.42163C0.714615 56.7338 0.141357 56.1579 0.141357 55.4477V41.9419C0.141357 41.2316 0.714615 40.6558 1.42163 40.6558Z" fill="white" stroke="white" stroke-width="0.75" stroke-miterlimit="10"/>
</g>
<defs>
<clipPath id="clip0_10_247">
<rect width="80" height="73" fill="white"/>
</clipPath>
</defs>
</svg>
