<svg width="28" height="28" viewBox="0 0 28 28" fill="none" xmlns="http://www.w3.org/2000/svg">
<g clip-path="url(#clip0_16_896)">
<path d="M26.6339 8.36157H13.6012C12.8478 8.36157 12.2349 8.9872 12.2349 9.75545V18.2447C12.2349 19.0134 12.8478 19.6386 13.6012 19.6386H26.6339C27.3872 19.6386 28.0002 19.0129 28.0002 18.2447V9.75545C28.0002 8.9872 27.3872 8.36157 26.6339 8.36157ZM25.3835 10.1116L20.1173 14.2494L14.8511 10.1116H25.3835ZM26.2502 17.889H13.9849V11.6564L20.1173 16.4754L26.2502 11.6564V17.889Z" fill="white"/>
<path d="M9.60706 9.3042H0V11.0542H9.60706V9.3042Z" fill="white"/>
<path d="M9.60885 12.9482H2.6001V14.6982H9.60885V12.9482Z" fill="white"/>
<path d="M9.60691 17.0703H5.22754V18.8203H9.60691V17.0703Z" fill="white"/>
</g>
<defs>
<clipPath id="clip0_16_896">
<rect width="28" height="28" fill="white"/>
</clipPath>
</defs>
</svg>
