<svg width="72" height="72" viewBox="0 0 72 72" fill="none" xmlns="http://www.w3.org/2000/svg">
<g clip-path="url(#clip0_10_226)">
<path d="M36 60.1333C27.7704 60.1333 21.0732 53.4371 21.0732 45.2086C21.0732 35.6568 34.0197 13.6114 34.5737 12.6794C34.8722 12.1753 35.4162 11.8635 36.0033 11.8635C36.5904 11.8635 37.1344 12.1753 37.433 12.6794C37.9836 13.6147 50.9334 35.6568 50.9334 45.2086C50.9334 53.4371 44.2362 60.1333 36.0066 60.1333H36ZM36 16.8683C32.6133 22.9111 24.3903 38.3034 24.3903 45.2119C24.3903 51.6129 29.5981 56.82 36 56.82C42.4019 56.82 47.6097 51.6129 47.6097 45.2119C47.6097 38.3068 39.3834 22.9111 36 16.8683Z" fill="white"/>
<path d="M36 53.5001C31.4258 53.5001 27.7073 49.7789 27.7073 45.2086C27.7073 44.2932 28.4504 43.5503 29.3659 43.5503C30.2814 43.5503 31.0244 44.2932 31.0244 45.2086C31.0244 47.9514 33.2568 50.1835 36 50.1835C36.9155 50.1835 37.6585 50.9264 37.6585 51.8418C37.6585 52.7572 36.9155 53.5001 36 53.5001Z" fill="white"/>
<path d="M62.6128 60.2625C75.5028 46.1504 75.1181 24.1812 61.4684 10.5334C56.6454 5.7111 50.5884 2.3746 43.9477 0.88213C37.4927 -0.567222 30.769 -0.225613 24.5064 1.87379C23.6374 2.16234 23.1697 3.10425 23.4616 3.9732C23.7501 4.83883 24.6922 5.30979 25.5612 5.01793C37.433 1.03801 50.2965 4.0528 59.1232 12.8783C71.4792 25.2326 71.8607 45.1023 60.2676 57.9176L59.5677 57.2178C58.4664 56.1167 56.9074 55.6988 55.4015 56.1035C53.8955 56.5048 52.7578 57.6457 52.3531 59.1514L50.9633 64.3452C50.5586 65.8509 50.9765 67.4064 52.0778 68.5109C52.9037 69.3367 53.9851 69.7778 55.1063 69.7778C55.4844 69.7778 55.8659 69.728 56.244 69.6252L61.4385 68.2323C62.9445 67.8309 64.0822 66.69 64.4869 65.1843C64.8916 63.6786 64.4736 62.1231 63.3724 61.022L62.6128 60.2625ZM61.2826 64.3253C61.2395 64.4945 61.0803 64.8958 60.5794 65.0317L55.3849 66.4214C54.884 66.5574 54.5457 66.2854 54.423 66.166C54.3002 66.0433 54.0315 65.705 54.1642 65.2042L55.5574 60.0104C55.6934 59.5096 56.0947 59.3504 56.2606 59.3073C56.3203 59.2907 56.4165 59.2708 56.5293 59.2708C56.7283 59.2708 56.9903 59.3305 57.2225 59.5627L61.0272 63.3668C61.3921 63.7316 61.3291 64.1595 61.2826 64.3253Z" fill="white"/>
<path d="M48.5418 68.0268C48.2532 67.1578 47.3112 66.6902 46.4421 66.9821C34.5704 70.9587 21.7068 67.9472 12.8768 59.1184C6.7104 52.9529 3.31706 44.7443 3.31706 35.9984C3.31706 27.813 6.29245 20.092 11.7324 14.079L12.4323 14.7788C13.2583 15.6047 14.3396 16.0458 15.4641 16.0458C15.8389 16.0458 16.2204 15.9993 16.5985 15.8965C18.1045 15.4919 19.2456 14.3543 19.6469 12.8486L21.0401 7.65477C21.4448 6.14903 21.0268 4.59023 19.9256 3.48912C18.821 2.38801 17.2653 1.97012 15.7593 2.37143L10.5648 3.7644C9.05888 4.16903 7.91781 5.30662 7.51313 6.81235C7.11177 8.31809 7.52972 9.87689 8.63098 10.978L9.38727 11.7342C3.32037 18.374 0 26.9275 0 35.9984C0 45.6298 3.73832 54.6742 10.5317 61.4632C15.3546 66.2856 21.4149 69.6254 28.0523 71.1145C30.6761 71.7049 33.343 72.0001 36.0066 72.0001C39.8975 72.0001 43.7785 71.3699 47.4969 70.1262C48.366 69.8343 48.8337 68.8957 48.5418 68.0268ZM10.7174 7.67135C10.7638 7.50552 10.9231 7.10421 11.4206 6.96823L16.6184 5.57526C16.7146 5.55205 16.8042 5.53878 16.8871 5.53878C17.2387 5.53878 17.4809 5.73446 17.5771 5.83396C17.6998 5.95667 17.9718 6.29496 17.8358 6.79577L16.4426 11.9896C16.31 12.4904 15.9086 12.6496 15.7394 12.6927C15.5736 12.7391 15.1457 12.8021 14.7808 12.434L10.9761 8.63317C10.6079 8.26502 10.6743 7.83718 10.7174 7.67135Z" fill="white"/>
</g>
<defs>
<clipPath id="clip0_10_226">
<rect width="72" height="72" fill="white"/>
</clipPath>
</defs>
</svg>
