<svg width="64" height="65" viewBox="0 0 64 65" fill="none" xmlns="http://www.w3.org/2000/svg">
<g clip-path="url(#clip0_10_296)">
<path d="M59.8301 6.86201H50.418C48.6634 6.86201 48.6634 9.56359 50.418 9.56359H59.8301C60.5991 9.56359 61.2489 10.212 61.2489 10.9684V41.6584H58.6279V13.67C58.6279 12.9135 57.9672 12.2652 57.209 12.2652H43.6487V8.69909L45.7282 9.77972C47.2554 10.6442 48.5768 8.15877 47.0388 7.40233L33.3593 0.162095C32.926 -0.0540316 32.482 -0.0540316 32.0487 0.162095L18.3801 7.51039C16.8529 8.3749 18.0552 10.7523 19.6906 9.88778L21.7702 8.80715V12.3732H6.78017C6.01117 12.3732 5.36131 13.0216 5.36131 13.7781V41.7664H2.74023V11.0765C2.74023 10.32 3.40091 9.67165 4.15908 9.67165H14.8817C16.6363 9.67165 16.6363 6.97007 14.8817 6.97007H4.15908C1.86292 6.97007 0 8.80715 0 11.0765V49.3308C0 51.6002 1.86292 53.4372 4.15908 53.4372H23.6331L20.3513 62.2984H14.4485C12.6939 62.2984 12.6939 65 14.4485 65H48.3601C50.1147 65 50.1147 62.2984 48.3601 62.2984H42.2298L38.948 53.4372H59.8409C62.1371 53.4372 64 51.6002 64 49.3308V11.0765C64.1083 8.80715 62.1371 6.86201 59.8409 6.86201H59.8301ZM32.7094 3.0798L40.9084 7.40233V21.7747H37.3017V16.3716C37.3017 13.8861 35.2222 11.8329 32.7094 11.8329C30.1967 11.8329 28.2254 13.8861 28.2254 16.3716V21.7747H24.6187V7.40233L32.7094 3.0798ZM34.5615 21.7747H30.9548V16.3716C30.9548 14.1022 34.5615 14.1022 34.5615 16.3716V21.7747ZM39.3813 62.2984H23.2973L26.5791 53.4372H36.0995L39.3813 62.2984ZM59.8301 50.7357H4.26739C3.49839 50.7357 2.84854 50.0873 2.84854 49.3308V44.468H14.5568C16.3114 44.468 16.3114 41.7664 14.5568 41.7664H8.20985V14.9668H21.8785V23.0715C21.8785 23.8279 22.5392 24.4763 23.2973 24.4763H42.219C42.988 24.4763 43.6378 23.8279 43.6378 23.0715V14.9668H55.9959V41.6584H23.6223C21.8677 41.6584 21.8677 44.3599 23.6223 44.3599H61.3573V49.3308C61.3573 50.0873 60.6966 50.7357 59.8301 50.7357Z" fill="white"/>
<path d="M12.2498 31.1762H24.6079C26.3625 31.1762 26.3625 28.4746 24.6079 28.4746H12.2498C10.4952 28.4746 10.4952 31.1762 12.2498 31.1762Z" fill="white"/>
<path d="M12.2498 35.2826H24.6079C26.3625 35.2826 26.3625 32.5811 24.6079 32.5811H12.2498C10.4952 32.5811 10.4952 35.2826 12.2498 35.2826Z" fill="white"/>
<path d="M53.2665 37.9842C53.2665 37.2277 52.6059 36.5793 51.8477 36.5793H12.2498C10.4952 36.5793 10.4952 39.2809 12.2498 39.2809H51.956C52.6167 39.2809 53.2665 38.7406 53.2665 37.9842Z" fill="white"/>
<path d="M31.2798 45.6567C29.4168 45.6567 29.4168 48.4664 31.2798 48.4664C33.1427 48.4664 33.1427 45.6567 31.2798 45.6567Z" fill="white"/>
<path d="M49.1074 31.1763H46.3781V33.8778H49.1074V31.1763Z" fill="white"/>
<path d="M51.8477 28.4746H49.1183V31.1762H51.8477V28.4746Z" fill="white"/>
<path d="M49.1074 25.7729H46.3781V28.4745H49.1074V25.7729Z" fill="white"/>
<path d="M51.8477 23.0715H49.1183V25.7731H51.8477V23.0715Z" fill="white"/>
</g>
<defs>
<clipPath id="clip0_10_296">
<rect width="64" height="65" fill="white"/>
</clipPath>
</defs>
</svg>
