<svg width="18" height="19" viewBox="0 0 18 19" fill="none" xmlns="http://www.w3.org/2000/svg">
<path d="M5.24091 9.73544C5.24091 9.22381 4.90434 8.91846 4.31039 8.91846C4.0681 8.91846 3.90395 8.94312 3.81787 8.96785V10.6108C3.91964 10.6351 4.04473 10.6435 4.2163 10.6435C4.84999 10.6435 5.24091 10.3051 5.24091 9.73544Z" fill="white"/>
<path d="M8.91728 8.93481C8.6511 8.93481 8.47947 8.95955 8.37744 8.98432V12.6244C8.47927 12.6495 8.64352 12.6495 8.79215 12.6495C9.87113 12.6575 10.575 12.0304 10.575 10.7014C10.5829 9.54538 9.94146 8.93481 8.91728 8.93481Z" fill="white"/>
<path d="M15.9614 6.79621H15.5291V4.59487C15.5291 4.58114 15.5271 4.5673 15.5254 4.5534C15.5247 4.46599 15.4983 4.38013 15.4416 4.31211L11.9711 0.127425C11.9701 0.126356 11.9691 0.125977 11.9684 0.124804C11.9477 0.100416 11.9236 0.0801324 11.8981 0.0625743C11.8905 0.0572276 11.8829 0.0527432 11.875 0.0481208C11.8529 0.0353921 11.8295 0.0248366 11.8054 0.0172131C11.7988 0.0152814 11.7929 0.0124528 11.7864 0.010659C11.7602 0.00410493 11.733 0 11.7054 0H3.17622C2.78674 0 2.47034 0.334362 2.47034 0.745131V6.79604H2.03822C1.48106 6.79604 1.0293 7.2727 1.0293 7.86101V13.399C1.0293 13.9869 1.48106 14.4639 2.03822 14.4639H2.47037V18.2549C2.47037 18.6656 2.78678 19 3.17625 19H14.8233C15.2124 19 15.5292 18.6656 15.5292 18.2549V14.4639H15.9614C16.5184 14.4639 16.9702 13.9869 16.9702 13.399V7.86118C16.9702 7.2729 16.5184 6.79621 15.9614 6.79621ZM3.17622 0.745269H11.3524V4.55744C11.3524 4.76327 11.5107 4.92999 11.7054 4.92999H14.8233V6.79645H3.17622V0.745269ZM11.8415 10.6598C11.8415 11.7249 11.4741 12.4593 10.9651 12.9135C10.4105 13.4005 9.56572 13.6315 8.53383 13.6315C7.91618 13.6315 7.47837 13.5902 7.18085 13.5491V8.08447C7.61873 8.01034 8.18994 7.96905 8.79209 7.96905C9.79248 7.96905 10.4417 8.15905 10.9502 8.56326C11.4974 8.99256 11.8415 9.67753 11.8415 10.6598ZM2.63701 13.5738V8.08447C3.00436 8.01879 3.52073 7.96905 4.24798 7.96905C4.98298 7.96905 5.50703 8.11766 5.8588 8.415C6.19514 8.69549 6.42138 9.15782 6.42138 9.70264C6.42138 10.2476 6.24981 10.7098 5.93677 11.0233C5.53017 11.4279 4.92811 11.6096 4.22413 11.6096C4.06798 11.6096 3.92674 11.6012 3.81776 11.5846V13.574H2.63701V13.5738ZM14.8233 18.0532H3.17622V14.4639H14.8233V18.0532H14.8233ZM15.8461 9.04213H13.8203V10.3133H15.7129V11.3369H13.8203V13.5739H12.6244V8.01034H15.8461V9.04213Z" fill="white"/>
</svg>
