<svg width="69" height="74" viewBox="0 0 69 74" fill="none" xmlns="http://www.w3.org/2000/svg">
<g clip-path="url(#clip0_10_199)">
<path d="M67.3233 42.4398C65.0878 40.0722 61.3269 40.0722 58.9749 42.4398L47.3313 54.1595C47.2148 53.8044 46.9819 53.4492 46.8655 53.0941C47.6922 51.7919 46.0388 50.2529 44.7464 51.2C44.1642 50.8448 43.4539 50.7265 42.7437 50.6081L18.8743 48.5956C20.1667 47.8853 19.701 45.8728 18.164 45.8728C16.7551 45.7545 16.0449 47.7669 17.3373 48.5956C14.9853 48.714 12.6333 49.661 10.747 51.2L1.22258 59.7234C0.640396 60.3153 0.512317 61.2624 1.10614 61.8543L12.7497 73.574C13.2155 74.0475 14.0422 74.1659 14.636 73.6924L19.5729 70.141L41.6841 71.6799C44.7464 71.9167 47.6806 70.7329 49.7997 68.602L67.3233 50.9632C69.5589 48.4772 69.5589 44.689 67.3233 42.4398C69.5589 44.689 64.9713 40.0722 67.3233 42.4398ZM65.2042 48.7258L47.6806 66.3646C46.1553 67.9036 44.0361 68.7322 41.8005 68.6138L19.6893 67.1933L12.7497 61.0374C11.3409 59.7353 9.33817 61.9845 10.8635 63.2867L16.8599 68.4955L14.0422 70.6263L4.40128 60.9191L12.7497 53.4611C14.2751 52.0405 16.3942 51.4486 18.3969 51.567L42.3827 53.5794C44.0245 53.6978 45.084 55.3552 44.6183 56.8941C44.5019 57.1309 44.3854 57.2493 44.3854 57.486C43.9197 58.3147 42.9765 58.7882 42.0334 58.7882L26.2796 58.0779C24.3934 57.9595 24.2769 60.9191 26.1632 61.0374L41.917 61.7477C44.1525 61.8661 46.2717 60.5639 47.2032 58.5514L61.0824 44.5825C63.7837 41.8597 67.9055 46.0031 65.1925 48.7258H65.2042Z" fill="black"/>
<path d="M5.82172 33.3362C7.34703 33.3362 8.88399 32.7443 9.94356 31.5605L21.5872 19.8408C22.1693 21.3797 23.4734 22.6819 25.1152 23.1555C25.348 24.6944 27.3507 24.9312 27.9329 23.5106L50.277 25.4047C53.0948 25.6415 56.0406 24.6944 58.1597 22.8003L67.6842 14.2769C68.2664 13.685 68.3945 12.7379 67.8006 12.146L56.2618 0.414455C55.7961 -0.059069 54.9694 -0.17745 54.3756 0.296074L49.4387 3.84751L27.3275 2.30855C24.2652 2.07179 21.331 3.2556 19.2119 5.38646L1.69988 23.1436C-1.94456 26.8134 0.640315 33.3244 5.81008 33.3244L5.82172 33.3362ZM3.70258 25.2745L21.2262 7.6357C22.7515 6.09675 24.9871 5.26808 27.1062 5.38646L49.2174 6.92541L56.157 13.0812C57.5659 14.3834 59.5686 12.1342 58.0433 10.832L52.0468 5.62322L54.8646 3.49236L64.5055 13.1996L56.2735 20.5392C54.7481 21.9598 52.629 22.5517 50.6263 22.4333L26.6405 20.4209C24.9987 20.3025 23.9392 18.6451 24.4049 17.1062C24.5213 16.8694 24.6378 16.751 24.6378 16.5143C25.1035 15.6856 26.0467 15.2121 26.9898 15.2121L42.7436 15.9224C44.6299 16.0408 44.7463 13.0812 42.86 12.9628L27.1062 12.2526C24.8707 12.1342 22.7515 13.4364 21.82 15.4488L7.94086 29.4178C5.23954 32.1406 1.1177 27.9972 3.70258 25.2745Z" fill="black"/>
<path d="M47.9134 28.601C46.2717 29.6664 47.9134 32.1524 49.4387 31.087C51.0805 30.0215 49.5551 27.5355 47.9134 28.601C48.6237 28.1274 47.4477 28.8377 47.9134 28.601Z" fill="black"/>
<path d="M48.973 33.5612C48.973 35.4553 51.9072 35.4553 51.9072 33.5612C51.9072 31.6671 48.973 31.6671 48.973 33.5612Z" fill="black"/>
<path d="M47.2148 27.6419C48.5072 26.3398 46.5045 24.2089 45.0956 25.5111C43.8032 26.9317 45.8059 28.9441 47.2148 27.6419C47.4476 27.2868 46.8655 27.8787 47.2148 27.6419Z" fill="black"/>
<path d="M51.5695 46.2278C52.2797 44.452 49.5668 43.3866 48.8682 45.1623C48.1579 46.938 50.8709 48.0035 51.5695 46.2278C51.5695 46.1094 51.3366 46.8197 51.5695 46.2278Z" fill="black"/>
<path d="M47.4477 50.6079C48.5073 51.3182 49.9161 50.3712 49.6833 49.069C49.4504 47.7668 47.797 47.4116 46.9819 48.4771C46.6326 49.1873 46.7491 50.1344 47.4477 50.6079C47.6806 50.7263 46.9819 50.2528 47.4477 50.6079Z" fill="black"/>
<path d="M52.7338 37.4796C52.6174 35.5855 49.5551 35.8223 49.7997 37.7164C50.0325 39.6105 52.8619 39.3737 52.7338 37.4796Z" fill="black"/>
<path d="M52.6174 41.966C52.8503 40.0719 49.9161 39.7168 49.6833 41.6109C49.4504 43.3866 52.3846 43.8601 52.6174 41.966C52.7339 41.8476 52.6174 42.6763 52.6174 41.966Z" fill="black"/>
<path d="M16.5223 36.7573C18.4085 36.7573 18.4085 33.9161 16.6387 33.7978C14.7524 33.6794 14.636 36.7573 16.5223 36.7573Z" fill="black"/>
<path d="M16.6387 44.9257C18.4085 44.9257 18.6414 42.2029 16.7551 41.9661C14.7524 41.7294 14.636 44.9257 16.6387 44.9257Z" fill="black"/>
<path d="M14.636 39.3617C14.636 41.1374 17.2209 41.3742 17.5702 39.5985C17.9195 37.586 14.636 37.2309 14.636 39.3617Z" fill="black"/>
<path d="M19.2236 32.0221C20.0503 30.4832 17.8147 29.0626 16.7551 30.4832C15.4627 32.1405 18.3969 33.7979 19.2236 32.0221C19.34 31.7854 18.9907 32.4957 19.2236 32.0221Z" fill="black"/>
<path d="M23.1009 26.4583C24.9871 26.4583 24.9871 23.6172 23.2173 23.4988C21.331 23.4988 21.2146 26.4583 23.1009 26.4583Z" fill="black"/>
<path d="M21.3427 28.8259C22.5187 27.5237 20.6325 25.6296 19.2236 26.695C17.6983 28.1156 20.0503 30.3649 21.3427 28.8259C21.5756 28.5891 20.9934 29.181 21.3427 28.8259Z" fill="black"/>
<path d="M25.3365 46.8197H40.9738C41.8005 46.8197 42.4991 46.1094 42.4991 45.2808V34.0346L43.6751 34.6265C45.3169 35.5735 46.7374 32.8508 45.084 32.0221L33.9178 26.103C33.324 25.8663 33.0911 26.103 32.5089 26.103L21.3427 32.1405C19.701 33.0875 20.9934 35.6919 22.7516 34.7448L23.9276 34.1529V45.5175C23.9276 46.2278 24.5098 46.8197 25.3365 46.8197ZM32.0432 43.8602V39.7169C32.0432 38.1779 34.2788 38.1779 34.2788 39.7169V43.8602H32.0432ZM39.565 43.8602H37.3294V39.7169C37.3294 37.4676 35.4431 35.5735 33.2192 35.5735C30.9953 35.5735 29.0974 37.4676 29.0974 39.7169V43.8602H26.8618V32.3772L33.2075 28.9442L39.5533 32.3772V43.8602H39.565Z" fill="black"/>
<path d="M61.6761 31.7854H58.7419V34.7449H61.6761V31.7854Z" fill="black"/>
<path d="M64.6103 28.8259H61.6761V31.7855H64.6103V28.8259Z" fill="black"/>
<path d="M61.6761 25.8662H58.7419V28.8257H61.6761V25.8662Z" fill="black"/>
<path d="M64.6103 22.9067H61.6761V25.8663H64.6103V22.9067Z" fill="black"/>
<path d="M7.34709 48.1338H4.4129V51.0933H7.34709V48.1338Z" fill="black"/>
<path d="M10.2813 45.1743H7.34711V48.1338H10.2813V45.1743Z" fill="black"/>
<path d="M7.34709 42.2148H4.4129V45.1744H7.34709V42.2148Z" fill="black"/>
<path d="M10.2813 39.2551H7.34711V42.2147H10.2813V39.2551Z" fill="black"/>
</g>
<defs>
<clipPath id="clip0_10_199">
<rect width="69" height="74" fill="white"/>
</clipPath>
</defs>
</svg>
