<svg width="15" height="15" viewBox="0 0 15 15" fill="none" xmlns="http://www.w3.org/2000/svg">
<g clip-path="url(#clip0_16_880)">
<path d="M7.50021 15C6.62767 15 5.77245 14.8513 4.95818 14.5581C4.17136 14.2746 3.44146 13.8633 2.78851 13.3357C1.48059 12.2784 0.556298 10.7977 0.186175 9.16623C0.0946002 8.76236 0.347724 8.36051 0.751597 8.26893C1.15547 8.17713 1.55732 8.43048 1.64889 8.83436C2.27236 11.5816 4.6785 13.5004 7.50021 13.5004C10.8086 13.5004 13.5003 10.8087 13.5003 7.50034C13.5003 4.19195 10.8086 1.50007 7.50021 1.50007C6.02197 1.50007 4.60155 2.04231 3.50108 3.02713L2.70009 3.75006H4.50008C4.9143 3.75006 5.25 4.08575 5.25 4.49998C5.25 4.9142 4.9143 5.2499 4.50008 5.2499H0.751822C0.748222 5.2499 0.744397 5.2499 0.740797 5.2499C0.637973 5.24855 0.540098 5.22672 0.451223 5.18802C0.357849 5.14752 0.271449 5.08745 0.198325 5.0078C0.198325 5.00758 0.197875 5.00735 0.19765 5.00712C0.197425 5.0069 0.1972 5.00667 0.196975 5.00645C0.186625 4.9952 0.176725 4.9835 0.16705 4.97158C0.1666 4.97113 0.16615 4.97067 0.165925 4.97C0.165475 4.96955 0.16525 4.9691 0.1648 4.96865C0.1648 4.96865 0.1648 4.96865 0.1648 4.96843C0.111925 4.9025 0.0718753 4.82983 0.0446505 4.754C0.0446505 4.754 0.0446505 4.75378 0.0446505 4.75355C0.0446505 4.7531 0.0444255 4.75288 0.0442005 4.75243C0.0442005 4.75198 0.0437505 4.75153 0.0437505 4.75108C0.0244006 4.6964 0.0111256 4.63903 0.00505065 4.5794C0.00212566 4.55173 0.000775671 4.52405 0.00100067 4.49615V0.749921C0.000325673 0.335698 0.336024 0 0.750247 0C1.16447 0 1.50017 0.335698 1.50017 0.749921V2.81249L2.49759 1.91204C2.49759 1.91204 2.49916 1.91069 2.50006 1.90979C3.87616 0.678372 5.65207 0 7.50021 0C8.51226 0 9.4946 0.198449 10.4198 0.589722C11.313 0.967495 12.1149 1.50817 12.8034 2.19666C13.4919 2.88516 14.0326 3.68728 14.4104 4.5803C14.8017 5.5055 15.0001 6.48762 15.0001 7.49989C15.0001 8.51216 14.8017 9.49428 14.4104 10.4195C14.0326 11.3127 13.4919 12.1146 12.8034 12.8031C12.1149 13.4916 11.3128 14.0323 10.4198 14.4101C9.4946 14.8013 8.51248 14.9998 7.50021 14.9998V15Z" fill="white"/>
</g>
<defs>
<clipPath id="clip0_16_880">
<rect width="15" height="15" fill="white"/>
</clipPath>
</defs>
</svg>
